<?xml version="1.0" encoding="utf-8" standalone="no"?>
<!DOCTYPE svg PUBLIC "-//W3C//DTD SVG 1.1//EN"
  "http://www.w3.org/Graphics/SVG/1.1/DTD/svg11.dtd">
<!-- Created with matplotlib (https://matplotlib.org/) -->
<svg height="345.6pt" version="1.1" viewBox="0 0 460.8 345.6" width="460.8pt" xmlns="http://www.w3.org/2000/svg" xmlns:xlink="http://www.w3.org/1999/xlink">
 <defs>
  <style type="text/css">
*{stroke-linecap:butt;stroke-linejoin:round;}
  </style>
 </defs>
 <g id="figure_1">
  <g id="patch_1">
   <path d="M 0 345.6 
L 460.8 345.6 
L 460.8 0 
L 0 0 
z
" style="fill:#ffffff;"/>
  </g>
  <g id="axes_1">
   <g id="patch_2">
    <path d="M 57.6 147.9168 
L 414.72 147.9168 
L 414.72 41.472 
L 57.6 41.472 
z
" style="fill:#ffffff;"/>
   </g>
   <g id="matplotlib.axis_1">
    <g id="xtick_1">
     <g id="line2d_1">
      <defs>
       <path d="M 0 0 
L 0 3.5 
" id="ma951a4fc74" style="stroke:#000000;stroke-width:0.8;"/>
      </defs>
      <g>
       <use style="stroke:#000000;stroke-width:0.8;" x="57.6" xlink:href="#ma951a4fc74" y="147.9168"/>
      </g>
     </g>
     <g id="text_1">
      <!-- 0 -->
      <defs>
       <path d="M 31.78125 66.40625 
Q 24.171875 66.40625 20.328125 58.90625 
Q 16.5 51.421875 16.5 36.375 
Q 16.5 21.390625 20.328125 13.890625 
Q 24.171875 6.390625 31.78125 6.390625 
Q 39.453125 6.390625 43.28125 13.890625 
Q 47.125 21.390625 47.125 36.375 
Q 47.125 51.421875 43.28125 58.90625 
Q 39.453125 66.40625 31.78125 66.40625 
z
M 31.78125 74.21875 
Q 44.046875 74.21875 50.515625 64.515625 
Q 56.984375 54.828125 56.984375 36.375 
Q 56.984375 17.96875 50.515625 8.265625 
Q 44.046875 -1.421875 31.78125 -1.421875 
Q 19.53125 -1.421875 13.0625 8.265625 
Q 6.59375 17.96875 6.59375 36.375 
Q 6.59375 54.828125 13.0625 64.515625 
Q 19.53125 74.21875 31.78125 74.21875 
z
" id="DejaVuSans-48"/>
      </defs>
      <g transform="translate(54.41875 162.515237)scale(0.1 -0.1)">
       <use xlink:href="#DejaVuSans-48"/>
      </g>
     </g>
    </g>
    <g id="xtick_2">
     <g id="line2d_2">
      <g>
       <use style="stroke:#000000;stroke-width:0.8;" x="129.024" xlink:href="#ma951a4fc74" y="147.9168"/>
      </g>
     </g>
     <g id="text_2">
      <!-- 10000 -->
      <defs>
       <path d="M 12.40625 8.296875 
L 28.515625 8.296875 
L 28.515625 63.921875 
L 10.984375 60.40625 
L 10.984375 69.390625 
L 28.421875 72.90625 
L 38.28125 72.90625 
L 38.28125 8.296875 
L 54.390625 8.296875 
L 54.390625 0 
L 12.40625 0 
z
" id="DejaVuSans-49"/>
      </defs>
      <g transform="translate(113.11775 162.515237)scale(0.1 -0.1)">
       <use xlink:href="#DejaVuSans-49"/>
       <use x="63.623047" xlink:href="#DejaVuSans-48"/>
       <use x="127.246094" xlink:href="#DejaVuSans-48"/>
       <use x="190.869141" xlink:href="#DejaVuSans-48"/>
       <use x="254.492188" xlink:href="#DejaVuSans-48"/>
      </g>
     </g>
    </g>
    <g id="xtick_3">
     <g id="line2d_3">
      <g>
       <use style="stroke:#000000;stroke-width:0.8;" x="200.448" xlink:href="#ma951a4fc74" y="147.9168"/>
      </g>
     </g>
     <g id="text_3">
      <!-- 20000 -->
      <defs>
       <path d="M 19.1875 8.296875 
L 53.609375 8.296875 
L 53.609375 0 
L 7.328125 0 
L 7.328125 8.296875 
Q 12.9375 14.109375 22.625 23.890625 
Q 32.328125 33.6875 34.8125 36.53125 
Q 39.546875 41.84375 41.421875 45.53125 
Q 43.3125 49.21875 43.3125 52.78125 
Q 43.3125 58.59375 39.234375 62.25 
Q 35.15625 65.921875 28.609375 65.921875 
Q 23.96875 65.921875 18.8125 64.3125 
Q 13.671875 62.703125 7.8125 59.421875 
L 7.8125 69.390625 
Q 13.765625 71.78125 18.9375 73 
Q 24.125 74.21875 28.421875 74.21875 
Q 39.75 74.21875 46.484375 68.546875 
Q 53.21875 62.890625 53.21875 53.421875 
Q 53.21875 48.921875 51.53125 44.890625 
Q 49.859375 40.875 45.40625 35.40625 
Q 44.1875 33.984375 37.640625 27.21875 
Q 31.109375 20.453125 19.1875 8.296875 
z
" id="DejaVuSans-50"/>
      </defs>
      <g transform="translate(184.54175 162.515237)scale(0.1 -0.1)">
       <use xlink:href="#DejaVuSans-50"/>
       <use x="63.623047" xlink:href="#DejaVuSans-48"/>
       <use x="127.246094" xlink:href="#DejaVuSans-48"/>
       <use x="190.869141" xlink:href="#DejaVuSans-48"/>
       <use x="254.492188" xlink:href="#DejaVuSans-48"/>
      </g>
     </g>
    </g>
    <g id="xtick_4">
     <g id="line2d_4">
      <g>
       <use style="stroke:#000000;stroke-width:0.8;" x="271.872" xlink:href="#ma951a4fc74" y="147.9168"/>
      </g>
     </g>
     <g id="text_4">
      <!-- 30000 -->
      <defs>
       <path d="M 40.578125 39.3125 
Q 47.65625 37.796875 51.625 33 
Q 55.609375 28.21875 55.609375 21.1875 
Q 55.609375 10.40625 48.1875 4.484375 
Q 40.765625 -1.421875 27.09375 -1.421875 
Q 22.515625 -1.421875 17.65625 -0.515625 
Q 12.796875 0.390625 7.625 2.203125 
L 7.625 11.71875 
Q 11.71875 9.328125 16.59375 8.109375 
Q 21.484375 6.890625 26.8125 6.890625 
Q 36.078125 6.890625 40.9375 10.546875 
Q 45.796875 14.203125 45.796875 21.1875 
Q 45.796875 27.640625 41.28125 31.265625 
Q 36.765625 34.90625 28.71875 34.90625 
L 20.21875 34.90625 
L 20.21875 43.015625 
L 29.109375 43.015625 
Q 36.375 43.015625 40.234375 45.921875 
Q 44.09375 48.828125 44.09375 54.296875 
Q 44.09375 59.90625 40.109375 62.90625 
Q 36.140625 65.921875 28.71875 65.921875 
Q 24.65625 65.921875 20.015625 65.03125 
Q 15.375 64.15625 9.8125 62.3125 
L 9.8125 71.09375 
Q 15.4375 72.65625 20.34375 73.4375 
Q 25.25 74.21875 29.59375 74.21875 
Q 40.828125 74.21875 47.359375 69.109375 
Q 53.90625 64.015625 53.90625 55.328125 
Q 53.90625 49.265625 50.4375 45.09375 
Q 46.96875 40.921875 40.578125 39.3125 
z
" id="DejaVuSans-51"/>
      </defs>
      <g transform="translate(255.96575 162.515237)scale(0.1 -0.1)">
       <use xlink:href="#DejaVuSans-51"/>
       <use x="63.623047" xlink:href="#DejaVuSans-48"/>
       <use x="127.246094" xlink:href="#DejaVuSans-48"/>
       <use x="190.869141" xlink:href="#DejaVuSans-48"/>
       <use x="254.492188" xlink:href="#DejaVuSans-48"/>
      </g>
     </g>
    </g>
    <g id="xtick_5">
     <g id="line2d_5">
      <g>
       <use style="stroke:#000000;stroke-width:0.8;" x="343.296" xlink:href="#ma951a4fc74" y="147.9168"/>
      </g>
     </g>
     <g id="text_5">
      <!-- 40000 -->
      <defs>
       <path d="M 37.796875 64.3125 
L 12.890625 25.390625 
L 37.796875 25.390625 
z
M 35.203125 72.90625 
L 47.609375 72.90625 
L 47.609375 25.390625 
L 58.015625 25.390625 
L 58.015625 17.1875 
L 47.609375 17.1875 
L 47.609375 0 
L 37.796875 0 
L 37.796875 17.1875 
L 4.890625 17.1875 
L 4.890625 26.703125 
z
" id="DejaVuSans-52"/>
      </defs>
      <g transform="translate(327.38975 162.515237)scale(0.1 -0.1)">
       <use xlink:href="#DejaVuSans-52"/>
       <use x="63.623047" xlink:href="#DejaVuSans-48"/>
       <use x="127.246094" xlink:href="#DejaVuSans-48"/>
       <use x="190.869141" xlink:href="#DejaVuSans-48"/>
       <use x="254.492188" xlink:href="#DejaVuSans-48"/>
      </g>
     </g>
    </g>
    <g id="xtick_6">
     <g id="line2d_6">
      <g>
       <use style="stroke:#000000;stroke-width:0.8;" x="414.72" xlink:href="#ma951a4fc74" y="147.9168"/>
      </g>
     </g>
     <g id="text_6">
      <!-- 50000 -->
      <defs>
       <path d="M 10.796875 72.90625 
L 49.515625 72.90625 
L 49.515625 64.59375 
L 19.828125 64.59375 
L 19.828125 46.734375 
Q 21.96875 47.46875 24.109375 47.828125 
Q 26.265625 48.1875 28.421875 48.1875 
Q 40.625 48.1875 47.75 41.5 
Q 54.890625 34.8125 54.890625 23.390625 
Q 54.890625 11.625 47.5625 5.09375 
Q 40.234375 -1.421875 26.90625 -1.421875 
Q 22.3125 -1.421875 17.546875 -0.640625 
Q 12.796875 0.140625 7.71875 1.703125 
L 7.71875 11.625 
Q 12.109375 9.234375 16.796875 8.0625 
Q 21.484375 6.890625 26.703125 6.890625 
Q 35.15625 6.890625 40.078125 11.328125 
Q 45.015625 15.765625 45.015625 23.390625 
Q 45.015625 31 40.078125 35.4375 
Q 35.15625 39.890625 26.703125 39.890625 
Q 22.75 39.890625 18.8125 39.015625 
Q 14.890625 38.140625 10.796875 36.28125 
z
" id="DejaVuSans-53"/>
      </defs>
      <g transform="translate(398.81375 162.515237)scale(0.1 -0.1)">
       <use xlink:href="#DejaVuSans-53"/>
       <use x="63.623047" xlink:href="#DejaVuSans-48"/>
       <use x="127.246094" xlink:href="#DejaVuSans-48"/>
       <use x="190.869141" xlink:href="#DejaVuSans-48"/>
       <use x="254.492188" xlink:href="#DejaVuSans-48"/>
      </g>
     </g>
    </g>
   </g>
   <g id="matplotlib.axis_2">
    <g id="ytick_1">
     <g id="line2d_7">
      <defs>
       <path d="M 0 0 
L -3.5 0 
" id="mb0d21b4893" style="stroke:#000000;stroke-width:0.8;"/>
      </defs>
      <g>
       <use style="stroke:#000000;stroke-width:0.8;" x="57.6" xlink:href="#mb0d21b4893" y="143.080452"/>
      </g>
     </g>
     <g id="text_7">
      <!-- 0 -->
      <g transform="translate(44.2375 146.87967)scale(0.1 -0.1)">
       <use xlink:href="#DejaVuSans-48"/>
      </g>
     </g>
    </g>
    <g id="ytick_2">
     <g id="line2d_8">
      <g>
       <use style="stroke:#000000;stroke-width:0.8;" x="57.6" xlink:href="#mb0d21b4893" y="113.770138"/>
      </g>
     </g>
     <g id="text_8">
      <!-- 10 -->
      <g transform="translate(37.875 117.569357)scale(0.1 -0.1)">
       <use xlink:href="#DejaVuSans-49"/>
       <use x="63.623047" xlink:href="#DejaVuSans-48"/>
      </g>
     </g>
    </g>
    <g id="ytick_3">
     <g id="line2d_9">
      <g>
       <use style="stroke:#000000;stroke-width:0.8;" x="57.6" xlink:href="#mb0d21b4893" y="84.459825"/>
      </g>
     </g>
     <g id="text_9">
      <!-- 20 -->
      <g transform="translate(37.875 88.259043)scale(0.1 -0.1)">
       <use xlink:href="#DejaVuSans-50"/>
       <use x="63.623047" xlink:href="#DejaVuSans-48"/>
      </g>
     </g>
    </g>
    <g id="ytick_4">
     <g id="line2d_10">
      <g>
       <use style="stroke:#000000;stroke-width:0.8;" x="57.6" xlink:href="#mb0d21b4893" y="55.149511"/>
      </g>
     </g>
     <g id="text_10">
      <!-- 30 -->
      <g transform="translate(37.875 58.94873)scale(0.1 -0.1)">
       <use xlink:href="#DejaVuSans-51"/>
       <use x="63.623047" xlink:href="#DejaVuSans-48"/>
      </g>
     </g>
    </g>
    <g id="text_11">
     <!-- Loss -->
     <defs>
      <path d="M 9.8125 72.90625 
L 19.671875 72.90625 
L 19.671875 8.296875 
L 55.171875 8.296875 
L 55.171875 0 
L 9.8125 0 
z
" id="DejaVuSans-76"/>
      <path d="M 30.609375 48.390625 
Q 23.390625 48.390625 19.1875 42.75 
Q 14.984375 37.109375 14.984375 27.296875 
Q 14.984375 17.484375 19.15625 11.84375 
Q 23.34375 6.203125 30.609375 6.203125 
Q 37.796875 6.203125 41.984375 11.859375 
Q 46.1875 17.53125 46.1875 27.296875 
Q 46.1875 37.015625 41.984375 42.703125 
Q 37.796875 48.390625 30.609375 48.390625 
z
M 30.609375 56 
Q 42.328125 56 49.015625 48.375 
Q 55.71875 40.765625 55.71875 27.296875 
Q 55.71875 13.875 49.015625 6.21875 
Q 42.328125 -1.421875 30.609375 -1.421875 
Q 18.84375 -1.421875 12.171875 6.21875 
Q 5.515625 13.875 5.515625 27.296875 
Q 5.515625 40.765625 12.171875 48.375 
Q 18.84375 56 30.609375 56 
z
" id="DejaVuSans-111"/>
      <path d="M 44.28125 53.078125 
L 44.28125 44.578125 
Q 40.484375 46.53125 36.375 47.5 
Q 32.28125 48.484375 27.875 48.484375 
Q 21.1875 48.484375 17.84375 46.4375 
Q 14.5 44.390625 14.5 40.28125 
Q 14.5 37.15625 16.890625 35.375 
Q 19.28125 33.59375 26.515625 31.984375 
L 29.59375 31.296875 
Q 39.15625 29.25 43.1875 25.515625 
Q 47.21875 21.78125 47.21875 15.09375 
Q 47.21875 7.46875 41.1875 3.015625 
Q 35.15625 -1.421875 24.609375 -1.421875 
Q 20.21875 -1.421875 15.453125 -0.5625 
Q 10.6875 0.296875 5.421875 2 
L 5.421875 11.28125 
Q 10.40625 8.6875 15.234375 7.390625 
Q 20.0625 6.109375 24.8125 6.109375 
Q 31.15625 6.109375 34.5625 8.28125 
Q 37.984375 10.453125 37.984375 14.40625 
Q 37.984375 18.0625 35.515625 20.015625 
Q 33.0625 21.96875 24.703125 23.78125 
L 21.578125 24.515625 
Q 13.234375 26.265625 9.515625 29.90625 
Q 5.8125 33.546875 5.8125 39.890625 
Q 5.8125 47.609375 11.28125 51.796875 
Q 16.75 56 26.8125 56 
Q 31.78125 56 36.171875 55.265625 
Q 40.578125 54.546875 44.28125 53.078125 
z
" id="DejaVuSans-115"/>
     </defs>
     <g transform="translate(31.795313 105.661587)rotate(-90)scale(0.1 -0.1)">
      <use xlink:href="#DejaVuSans-76"/>
      <use x="53.962891" xlink:href="#DejaVuSans-111"/>
      <use x="115.144531" xlink:href="#DejaVuSans-115"/>
      <use x="167.244141" xlink:href="#DejaVuSans-115"/>
     </g>
    </g>
   </g>
   <g id="line2d_11">
    <path clip-path="url(#p880b478a6a)" d="M 58.31424 65.955931 
L 59.02848 46.3104 
L 59.74272 93.572694 
L 60.45696 114.220931 
L 61.1712 108.699747 
L 61.88544 113.601604 
L 62.59968 106.869611 
L 63.31392 118.539219 
L 64.02816 114.994723 
L 64.7424 117.315221 
L 66.17088 126.34309 
L 66.88512 109.601332 
L 67.59936 115.983653 
L 68.3136 119.371046 
L 69.02784 111.410658 
L 69.74208 121.612992 
L 70.45632 105.27982 
L 71.17056 124.545196 
L 71.8848 129.23807 
L 72.59904 110.021056 
L 73.31328 121.781233 
L 74.02752 105.223837 
L 74.74176 124.995402 
L 75.456 123.840576 
L 76.17024 128.202243 
L 76.88448 116.685928 
L 77.59872 124.818954 
L 78.31296 103.377873 
L 79.0272 121.412509 
L 79.74144 125.866505 
L 80.45568 95.157796 
L 81.16992 116.125808 
L 81.88416 112.355622 
L 82.5984 107.068335 
L 83.31264 117.149324 
L 84.02688 79.970071 
L 84.74112 125.588936 
L 85.45536 110.321194 
L 86.1696 111.494779 
L 86.88384 107.048111 
L 87.59808 119.678218 
L 88.31232 109.763125 
L 89.02656 115.405068 
L 89.7408 108.587489 
L 90.45504 121.004803 
L 91.16928 114.377448 
L 91.88352 124.415351 
L 92.59776 112.580433 
L 93.312 112.153381 
L 94.02624 125.355919 
L 94.74048 117.589858 
L 95.45472 121.810837 
L 96.16896 101.86253 
L 96.8832 110.823866 
L 97.59744 100.860118 
L 98.31168 115.525826 
L 99.02592 106.356388 
L 99.74016 126.372108 
L 100.4544 123.726559 
L 101.16864 116.672152 
L 101.88288 105.280113 
L 102.59712 126.291211 
L 104.0256 105.283337 
L 104.73984 116.217256 
L 105.45408 119.229184 
L 106.16832 120.675941 
L 106.88256 105.325544 
L 107.5968 104.073407 
L 108.31104 106.213353 
L 109.02528 111.54871 
L 109.73952 113.015398 
L 110.45376 121.141096 
L 111.168 123.776679 
L 111.88224 102.459581 
L 113.31072 128.344399 
L 114.02496 116.196739 
L 114.7392 112.894932 
L 115.45344 117.802651 
L 116.16768 127.135934 
L 116.88192 118.826167 
L 117.59616 105.286561 
L 118.3104 118.875116 
L 119.02464 127.023969 
L 119.73888 99.73636 
L 120.45312 122.324939 
L 121.16736 123.218318 
L 121.8816 124.561023 
L 122.59584 107.858248 
L 123.31008 125.076005 
L 124.02432 123.939058 
L 124.73856 113.894414 
L 125.4528 126.841659 
L 126.16704 100.651135 
L 127.59552 123.912972 
L 128.30976 119.884856 
L 129.024 96.38414 
L 129.73824 128.585622 
L 130.45248 118.578495 
L 131.16672 115.87667 
L 131.88096 108.629109 
L 132.5952 88.504062 
L 133.30944 88.311493 
L 134.02368 112.356209 
L 134.73792 127.734451 
L 135.45216 122.368319 
L 136.1664 91.176869 
L 136.88064 132.9341 
L 137.59488 106.362836 
L 138.30912 113.897345 
L 139.02336 128.791967 
L 139.7376 114.952223 
L 140.45184 125.549074 
L 141.16608 98.150086 
L 141.88032 115.934998 
L 142.59456 104.586338 
L 143.3088 125.144592 
L 144.02304 117.87241 
L 144.73728 94.537297 
L 145.45152 128.860553 
L 146.16576 116.100894 
L 146.88 116.527946 
L 147.59424 104.129976 
L 148.30848 117.252203 
L 149.02272 99.602998 
L 149.73696 114.881585 
L 150.4512 117.523324 
L 151.16544 115.25793 
L 151.87968 125.930401 
L 152.59392 125.677746 
L 153.30816 128.399502 
L 154.0224 111.98133 
L 154.73664 110.812434 
L 155.45088 109.91466 
L 156.16512 127.148245 
L 156.87936 109.946608 
L 157.5936 119.057133 
L 158.30784 121.148423 
L 159.02208 98.418568 
L 159.73632 122.733232 
L 160.45056 121.739906 
L 161.1648 125.63847 
L 161.87904 120.8562 
L 162.59328 112.224019 
L 163.30752 125.501884 
L 164.02176 117.950375 
L 164.736 124.659213 
L 165.45024 120.942372 
L 166.16448 128.944674 
L 166.87872 106.755008 
L 167.59296 113.28007 
L 168.3072 127.708658 
L 169.02144 119.196357 
L 169.73568 121.007148 
L 170.44992 122.502267 
L 171.16416 119.739477 
L 171.8784 108.650506 
L 172.59264 123.369266 
L 173.30688 126.117987 
L 174.02112 113.363897 
L 174.73536 117.236669 
L 175.4496 126.435711 
L 176.16384 118.610737 
L 176.87808 105.842871 
L 177.59232 110.31328 
L 178.30656 126.167815 
L 179.0208 130.15431 
L 179.73504 100.021843 
L 180.44928 99.406912 
L 181.16352 116.723739 
L 181.87776 119.403287 
L 182.592 118.501702 
L 183.30624 110.937296 
L 184.02048 119.735959 
L 184.73472 118.535116 
L 185.44896 118.782495 
L 186.1632 127.704847 
L 186.87744 108.526523 
L 187.59168 128.328278 
L 189.02016 123.482111 
L 189.7344 115.694653 
L 190.44864 121.266251 
L 191.16288 124.734247 
L 191.87712 122.603974 
L 192.59136 126.108022 
L 193.3056 111.931502 
L 194.01984 129.462294 
L 194.73408 116.23836 
L 195.44832 129.122587 
L 196.16256 127.658244 
L 196.8768 115.186706 
L 197.59104 119.451942 
L 198.30528 116.828669 
L 199.01952 117.583117 
L 199.73376 127.110727 
L 200.448 116.404256 
L 201.16224 117.156945 
L 201.87648 126.788021 
L 202.59072 109.025971 
L 203.30496 120.822786 
L 204.0192 112.601243 
L 204.73344 124.324782 
L 205.44768 113.702431 
L 206.16192 128.382502 
L 206.87616 123.181973 
L 207.5904 110.821521 
L 208.30464 116.629652 
L 209.01888 110.945503 
L 209.73312 109.689263 
L 210.44736 128.420019 
L 211.1616 116.857394 
L 211.87584 120.372579 
L 212.59008 117.142583 
L 213.30432 126.845762 
L 214.01856 112.207605 
L 214.7328 111.830382 
L 215.44704 128.090864 
L 216.16128 101.488238 
L 216.87552 104.780665 
L 217.58976 117.934254 
L 218.304 116.092981 
L 219.082522 126.187159 
L 219.796762 88.837906 
L 220.511002 131.438981 
L 221.225242 125.85947 
L 221.939482 101.90122 
L 222.653722 102.879012 
L 223.367962 118.235858 
L 224.082202 105.781612 
L 224.796442 118.509909 
L 225.510682 112.747794 
L 226.224922 101.418186 
L 226.939162 125.190316 
L 227.653402 111.573916 
L 228.367642 130.790051 
L 229.081882 102.378685 
L 229.796122 109.278626 
L 230.510362 121.681871 
L 231.224602 90.491301 
L 231.938842 131.722998 
L 232.653082 128.405364 
L 233.367322 127.693416 
L 234.081562 120.759769 
L 234.795802 116.049894 
L 235.510042 117.742565 
L 236.224282 117.623565 
L 236.938522 122.518974 
L 237.652762 107.18968 
L 238.367002 122.373008 
L 239.081242 124.825988 
L 239.795482 112.396071 
L 240.509722 124.211644 
L 241.223962 120.9497 
L 241.938202 122.626249 
L 242.652442 120.233942 
L 243.366682 105.949267 
L 244.080922 130.583706 
L 244.795162 121.520664 
L 245.509402 135.460063 
L 246.223642 126.178953 
L 246.937882 121.593061 
L 247.652122 118.814736 
L 248.366362 120.694993 
L 249.080602 117.644962 
L 249.794842 117.6731 
L 250.509082 121.434492 
L 251.223322 106.586473 
L 251.937562 131.720654 
L 252.651802 116.60679 
L 253.366042 122.821163 
L 254.080282 124.28873 
L 254.794522 131.140896 
L 255.508762 122.796542 
L 256.223002 124.890471 
L 256.937242 129.916897 
L 258.365722 118.673461 
L 259.079962 117.946858 
L 259.794202 117.5456 
L 260.508442 117.840461 
L 261.222682 121.778595 
L 261.936922 127.264313 
L 262.651162 93.044816 
L 263.365402 99.624688 
L 264.079642 109.431626 
L 264.793882 115.929722 
L 265.508122 131.828515 
L 266.222362 112.489278 
L 267.650842 124.04311 
L 268.365082 122.69718 
L 269.079322 133.579514 
L 269.793562 110.012556 
L 270.507802 118.074358 
L 271.222042 135.338132 
L 272.650522 100.011291 
L 273.364762 114.442517 
L 274.079002 124.941178 
L 274.793242 106.382767 
L 275.507482 115.084413 
L 276.221722 113.756362 
L 276.935962 118.572047 
L 277.650202 122.140284 
L 278.364442 113.881811 
L 279.078682 118.123013 
L 279.792922 131.92055 
L 280.507162 123.137421 
L 281.221402 115.816584 
L 281.935642 127.518727 
L 282.649882 111.596192 
L 283.364122 109.401436 
L 284.078362 132.527566 
L 284.792602 123.429352 
L 285.506842 125.456746 
L 286.221082 124.138662 
L 286.935322 124.541678 
L 287.649562 117.100669 
L 288.363802 123.311818 
L 289.078042 122.635336 
L 289.792282 133.039618 
L 290.506522 119.540167 
L 291.220762 122.647939 
L 291.935002 124.532299 
L 292.649242 110.081728 
L 293.363482 115.737446 
L 294.077722 115.664464 
L 295.506202 128.50795 
L 296.220442 119.388046 
L 296.934682 124.354386 
L 297.648922 92.169023 
L 299.791642 129.515346 
L 300.505882 121.45032 
L 301.220122 105.271906 
L 301.934362 125.494264 
L 302.648602 120.711407 
L 303.362842 123.473024 
L 304.791322 111.94733 
L 305.505562 121.107389 
L 306.219802 127.612813 
L 306.934042 128.20283 
L 307.648282 92.151144 
L 308.362522 121.626475 
L 309.076762 123.9628 
L 309.791002 95.533261 
L 311.219482 121.800285 
L 311.933722 120.173269 
L 312.647962 119.685546 
L 313.362202 117.464996 
L 314.076442 111.075055 
L 314.790682 124.718127 
L 315.504922 122.442767 
L 316.219162 110.289539 
L 316.933402 134.962667 
L 317.647642 113.353346 
L 318.361882 120.444683 
L 319.076122 122.856922 
L 319.790362 122.480577 
L 320.504602 107.057783 
L 321.218842 130.475258 
L 321.933082 107.046939 
L 322.647322 120.511803 
L 323.361562 129.228691 
L 324.075802 130.304086 
L 324.790042 113.19976 
L 326.218522 120.003563 
L 326.932762 128.595588 
L 327.647002 103.587735 
L 328.361242 123.692266 
L 329.075482 109.551212 
L 329.789722 111.925347 
L 330.503962 130.514534 
L 331.218202 117.353031 
L 331.932442 111.094107 
L 332.646682 130.769241 
L 333.360922 123.44049 
L 334.075162 114.70543 
L 334.789402 112.035261 
L 335.503642 118.683719 
L 336.217882 122.875094 
L 336.932122 115.350843 
L 337.646362 94.687952 
L 338.360602 127.128607 
L 339.074842 118.859288 
L 339.789082 113.425449 
L 340.503322 119.702546 
L 341.217562 131.17343 
L 341.931802 103.345046 
L 342.646042 108.816988 
L 343.360282 115.318895 
L 344.074522 134.178323 
L 344.788762 115.921808 
L 345.503002 129.112036 
L 346.217242 121.923095 
L 346.931482 121.384371 
L 347.645722 114.077897 
L 348.359962 128.261157 
L 349.074202 121.648457 
L 349.788442 101.296841 
L 350.502682 116.542308 
L 351.216922 124.009696 
L 351.931162 113.984983 
L 352.645402 128.066537 
L 353.359642 119.507925 
L 354.073882 126.221746 
L 354.788122 128.493295 
L 355.502362 118.680495 
L 356.216602 115.88517 
L 356.930842 99.741343 
L 357.645082 118.812685 
L 358.359322 128.44376 
L 359.073562 109.687798 
L 359.787802 116.739859 
L 360.502042 119.941425 
L 361.216282 127.010193 
L 361.930522 127.303882 
L 363.359002 103.565753 
L 364.073242 106.63337 
L 364.787482 114.109259 
L 365.501722 123.652404 
L 366.215962 104.275648 
L 366.930202 125.152505 
L 367.644442 122.109802 
L 368.358682 115.623722 
L 369.072922 118.832909 
L 369.787162 133.455824 
L 370.501402 119.483598 
L 371.215642 126.110073 
L 371.929882 109.139988 
L 372.644122 118.183392 
L 373.358362 118.385047 
L 374.072602 105.625388 
L 374.786842 108.194144 
L 375.501082 119.121322 
L 376.215322 123.472145 
L 376.929562 111.512951 
L 377.643802 115.579757 
L 378.358042 107.758886 
L 379.850803 128.871984 
L 380.565043 101.937272 
L 381.279283 122.428112 
L 381.993523 121.071337 
L 382.707763 118.643564 
L 383.422003 125.321919 
L 384.136243 114.181948 
L 384.850483 126.591349 
L 385.564723 114.448965 
L 386.278963 126.125022 
L 386.993203 122.84256 
L 388.421683 130.543258 
L 389.135923 130.83343 
L 389.850163 132.976894 
L 390.564403 114.453069 
L 391.278643 121.099475 
L 391.992883 126.682504 
L 392.707123 127.129486 
L 393.421363 98.901309 
L 394.135603 102.242978 
L 394.849843 132.140377 
L 395.564083 130.445655 
L 396.278323 133.6736 
L 396.992563 126.260435 
L 397.706803 123.742972 
L 398.421043 100.46648 
L 399.135283 128.006744 
L 399.849523 119.444615 
L 400.563763 137.420337 
L 401.278003 109.885349 
L 401.992243 128.009089 
L 402.706483 115.262912 
L 403.420723 122.950128 
L 404.134963 92.922298 
L 404.849203 118.128289 
L 405.563443 125.438281 
L 406.277683 113.766328 
L 406.991923 132.573291 
L 407.706163 124.238317 
L 408.420403 110.599935 
L 409.134643 108.979954 
L 410.563123 127.090503 
L 411.277363 124.804299 
L 411.991603 115.985998 
L 412.705843 126.647624 
L 413.420083 125.366178 
L 414.134323 128.625484 
L 414.848563 129.198794 
L 414.848563 129.198794 
" style="fill:none;stroke:#ff0000;stroke-linecap:square;stroke-width:1.5;"/>
   </g>
   <g id="line2d_12">
    <path clip-path="url(#p880b478a6a)" d="M 58.31424 142.001246 
L 59.02848 142.231918 
L 61.1712 142.301677 
L 61.88544 141.947608 
L 62.59968 142.247453 
L 64.02816 142.306659 
L 64.7424 142.36059 
L 65.45664 142.208177 
L 66.17088 139.909076 
L 66.88512 142.315159 
L 71.17056 142.047263 
L 71.8848 142.544952 
L 72.59904 141.085592 
L 73.31328 140.306524 
L 74.02752 140.542179 
L 74.74176 142.476659 
L 75.456 141.029902 
L 76.17024 142.459952 
L 76.88448 140.794833 
L 77.59872 142.621159 
L 78.31296 140.23911 
L 79.0272 140.787213 
L 79.74144 142.39078 
L 80.45568 139.100111 
L 81.16992 141.133368 
L 81.88416 141.538143 
L 82.5984 140.358696 
L 83.31264 141.913608 
L 84.02688 139.506645 
L 84.74112 142.568694 
L 85.45536 140.560937 
L 86.88384 140.652678 
L 87.59808 140.093145 
L 88.31232 139.821145 
L 89.02656 141.538729 
L 89.7408 139.173094 
L 90.45504 142.139591 
L 91.16928 141.83447 
L 91.88352 141.22423 
L 92.59776 141.752988 
L 93.312 139.936041 
L 94.02624 142.062505 
L 94.74048 141.949367 
L 95.45472 141.667695 
L 96.16896 138.469939 
L 96.8832 139.912886 
L 97.59744 140.672903 
L 98.31168 142.260056 
L 99.02592 140.71892 
L 99.74016 141.878143 
L 100.4544 141.949074 
L 101.16864 140.937282 
L 101.88288 140.887454 
L 102.59712 141.819522 
L 103.31136 139.8698 
L 104.0256 140.509937 
L 104.73984 141.791091 
L 105.45408 141.392764 
L 106.16832 142.59478 
L 106.88256 140.553903 
L 107.5968 139.03387 
L 108.31104 141.358178 
L 109.02528 140.97304 
L 109.73952 141.390126 
L 110.45376 142.152194 
L 111.168 141.060971 
L 111.88224 140.455127 
L 112.59648 139.474111 
L 113.31072 142.380815 
L 114.02496 141.199316 
L 114.7392 141.551919 
L 115.45344 140.477989 
L 116.16768 142.054884 
L 116.88192 140.890678 
L 117.59616 140.920282 
L 118.3104 140.691661 
L 119.02464 141.360816 
L 119.73888 140.784282 
L 120.45312 141.298678 
L 121.16736 142.646366 
L 122.59584 139.481145 
L 123.31008 140.190162 
L 124.02432 140.362799 
L 124.73856 139.999352 
L 125.4528 140.84642 
L 126.16704 140.796592 
L 126.88128 140.055041 
L 127.59552 141.61054 
L 128.30976 140.20042 
L 129.024 139.180715 
L 129.73824 141.962263 
L 130.45248 141.086178 
L 131.16672 141.612005 
L 131.88096 140.40823 
L 134.02368 139.750507 
L 134.73792 138.934801 
L 135.45216 140.190748 
L 136.1664 140.738851 
L 136.88064 141.610833 
L 138.30912 140.587316 
L 139.02336 141.677367 
L 139.7376 142.197039 
L 140.45184 141.347333 
L 141.16608 140.313265 
L 141.88032 140.612523 
L 142.59456 141.127799 
L 143.3088 140.865471 
L 144.02304 139.914352 
L 144.73728 140.567385 
L 145.45152 140.73973 
L 146.16576 140.43373 
L 146.88 140.730937 
L 147.59424 140.352541 
L 148.30848 140.280144 
L 150.4512 140.502317 
L 151.16544 140.205696 
L 151.87968 142.088591 
L 152.59392 140.510817 
L 153.30816 141.172937 
L 154.0224 140.834109 
L 154.73664 141.153592 
L 155.45088 140.499679 
L 156.87936 140.333782 
L 157.5936 141.806039 
L 158.30784 139.998472 
L 159.73632 140.577058 
L 160.45056 140.434024 
L 161.1648 142.022936 
L 161.87904 139.948938 
L 162.59328 139.805903 
L 164.02176 140.977144 
L 164.736 140.963954 
L 165.45024 140.428455 
L 166.16448 140.226506 
L 166.87872 140.921161 
L 167.59296 139.78949 
L 168.3072 141.19873 
L 169.02144 140.368662 
L 169.73568 139.897938 
L 170.44992 140.821506 
L 171.16416 140.146782 
L 171.8784 140.376868 
L 172.59264 141.071523 
L 173.30688 140.0398 
L 174.02112 140.273989 
L 174.73536 140.245558 
L 175.4496 141.11373 
L 176.16384 140.376868 
L 176.87808 141.097023 
L 177.59232 140.399144 
L 178.30656 141.563057 
L 179.0208 140.225041 
L 179.73504 140.606075 
L 181.16352 140.229438 
L 183.30624 140.146196 
L 184.73472 140.105748 
L 185.44896 140.487954 
L 186.1632 140.368075 
L 186.87744 140.512575 
L 187.59168 141.781126 
L 188.30592 140.270472 
L 189.02016 139.731748 
L 189.7344 140.255231 
L 190.44864 140.58761 
L 191.16288 139.795645 
L 191.87712 140.107214 
L 192.59136 139.655542 
L 194.01984 140.267248 
L 194.73408 140.237058 
L 195.44832 141.35554 
L 196.16256 141.635453 
L 196.8768 139.148766 
L 197.59104 140.245558 
L 198.30528 140.115127 
L 199.01952 140.569144 
L 199.73376 140.594937 
L 200.448 140.129489 
L 201.16224 140.125093 
L 201.87648 140.621903 
L 202.59072 140.57061 
L 203.30496 140.104282 
L 204.0192 140.583799 
L 204.73344 141.609367 
L 205.44768 141.527591 
L 206.16192 140.205403 
L 206.87616 141.145678 
L 207.5904 140.339058 
L 208.30464 140.214196 
L 209.01888 139.840197 
L 209.73312 140.924678 
L 210.44736 140.104869 
L 211.1616 140.333782 
L 211.87584 140.683747 
L 212.59008 140.051231 
L 213.30432 141.200781 
L 214.01856 140.511403 
L 215.44704 140.221524 
L 216.16128 140.745299 
L 216.87552 140.868989 
L 217.58976 140.166713 
L 218.304 139.680455 
L 219.082522 140.926437 
L 219.796762 139.943369 
L 220.511002 141.295161 
L 221.225242 140.333489 
L 221.939482 140.424058 
L 222.653722 139.516611 
L 223.367962 140.1503 
L 224.082202 139.606007 
L 224.796442 140.203058 
L 225.510682 140.595523 
L 226.224922 140.433437 
L 226.939162 140.139455 
L 227.653402 140.431092 
L 228.367642 139.999938 
L 231.224602 140.06061 
L 231.938842 141.583281 
L 232.653082 140.645644 
L 233.367322 140.558006 
L 234.081562 140.096369 
L 235.510042 140.247024 
L 236.224282 140.506713 
L 236.938522 140.177558 
L 237.652762 139.680455 
L 238.367002 140.438713 
L 239.081242 140.376282 
L 239.795482 140.0993 
L 240.509722 140.46392 
L 241.223962 139.818214 
L 241.938202 140.950178 
L 242.652442 140.638316 
L 243.366682 140.59611 
L 244.080922 140.188989 
L 244.795162 140.451903 
L 245.509402 140.249955 
L 246.223642 139.928714 
L 246.937882 140.406765 
L 247.652122 140.383903 
L 248.366362 140.031007 
L 249.080602 140.704558 
L 249.794842 140.538661 
L 250.509082 140.042731 
L 251.223322 140.227093 
L 251.937562 141.109626 
L 252.651802 140.686385 
L 253.366042 139.948645 
L 254.794522 140.486782 
L 255.508762 140.221231 
L 256.223002 139.541818 
L 257.651482 140.339644 
L 258.365722 139.89149 
L 259.079962 140.486196 
L 259.794202 140.647989 
L 260.508442 141.53404 
L 261.222682 140.349903 
L 261.936922 140.814178 
L 263.365402 140.061489 
L 264.079642 139.966524 
L 266.222362 140.060903 
L 266.936602 139.874197 
L 267.650842 140.374817 
L 268.365082 140.242627 
L 269.079322 139.755197 
L 269.793562 140.209213 
L 270.507802 139.957145 
L 271.222042 141.642488 
L 272.650522 139.596335 
L 273.364762 140.346972 
L 274.079002 139.446852 
L 274.793242 139.982938 
L 275.507482 140.24292 
L 276.221722 139.952162 
L 276.935962 140.17111 
L 277.650202 139.870386 
L 278.364442 140.484437 
L 279.078682 140.723609 
L 279.792922 140.310334 
L 280.507162 140.648868 
L 281.221402 140.447213 
L 281.935642 140.835868 
L 282.649882 140.225334 
L 283.364122 140.224162 
L 284.078362 142.032315 
L 284.792602 140.977437 
L 285.506842 140.937575 
L 286.221082 140.748523 
L 286.935322 139.555887 
L 287.649562 140.154989 
L 288.363802 140.957213 
L 289.078042 140.626006 
L 289.792282 140.109558 
L 290.506522 140.240282 
L 291.220762 140.740609 
L 291.935002 140.709247 
L 293.363482 140.208627 
L 294.077722 139.609231 
L 294.791962 140.420834 
L 295.506202 140.469782 
L 296.220442 140.169644 
L 296.934682 140.182834 
L 297.648922 140.488834 
L 298.363162 140.388006 
L 299.077402 140.630989 
L 299.791642 140.221524 
L 300.505882 140.207162 
L 301.220122 140.653265 
L 301.934362 140.312972 
L 302.648602 140.698109 
L 303.362842 140.776661 
L 304.791322 140.185765 
L 305.505562 140.061196 
L 306.219802 140.488834 
L 306.934042 140.097834 
L 307.648282 140.292455 
L 308.362522 140.203058 
L 309.076762 140.767575 
L 309.791002 139.892076 
L 310.505242 140.133007 
L 315.504922 140.388006 
L 316.219162 141.393057 
L 316.933402 140.049179 
L 317.647642 140.732403 
L 318.361882 140.248782 
L 319.076122 140.138576 
L 319.790362 140.159679 
L 321.218842 139.934283 
L 321.933082 140.48561 
L 322.647322 140.639782 
L 323.361562 140.645937 
L 324.075802 140.239696 
L 324.790042 140.088748 
L 325.504282 140.614282 
L 326.218522 140.516385 
L 326.932762 141.732177 
L 327.647002 140.091093 
L 328.361242 140.26842 
L 329.075482 140.030714 
L 329.789722 140.396213 
L 330.503962 140.338765 
L 331.218202 139.975317 
L 331.932442 140.439299 
L 332.646682 140.167593 
L 333.360922 140.141213 
L 334.075162 140.532799 
L 334.789402 140.292162 
L 335.503642 139.761352 
L 336.217882 140.096369 
L 336.932122 139.848403 
L 338.360602 140.052696 
L 339.789082 139.987627 
L 340.503322 140.516092 
L 341.217562 142.240125 
L 341.931802 139.895593 
L 342.646042 140.72742 
L 343.360282 140.466265 
L 344.074522 139.950696 
L 344.788762 141.085885 
L 345.503002 140.754092 
L 346.217242 140.067351 
L 346.931482 140.169938 
L 347.645722 140.445748 
L 348.359962 140.997368 
L 349.074202 140.327334 
L 349.788442 140.760834 
L 350.502682 140.11161 
L 351.216922 141.077385 
L 351.931162 140.138282 
L 352.645402 140.910609 
L 353.359642 139.941024 
L 354.073882 139.938386 
L 355.502362 140.709247 
L 356.216602 141.137764 
L 356.930842 139.92549 
L 357.645082 140.430799 
L 358.359322 139.817628 
L 359.073562 140.737678 
L 359.787802 140.271351 
L 360.502042 140.193093 
L 361.216282 140.579989 
L 361.930522 140.509644 
L 362.644762 140.187817 
L 364.073242 140.070283 
L 364.787482 140.125386 
L 365.501722 140.482972 
L 366.215962 140.200713 
L 366.930202 140.129782 
L 369.787162 140.452782 
L 371.215642 139.890317 
L 371.929882 140.058558 
L 372.644122 140.046248 
L 373.358362 140.237351 
L 374.072602 140.30711 
L 374.786842 139.986162 
L 375.501082 139.992903 
L 376.215322 140.460403 
L 376.929562 140.034524 
L 378.358042 140.340231 
L 379.072282 139.965352 
L 379.850803 140.448092 
L 380.565043 140.37892 
L 381.279283 140.078196 
L 381.993523 140.509058 
L 382.707763 140.050645 
L 383.422003 140.422006 
L 384.136243 140.057093 
L 384.850483 140.343162 
L 386.278963 140.241455 
L 386.993203 140.747937 
L 387.707443 140.175213 
L 388.421683 139.991731 
L 389.850163 140.983885 
L 390.564403 140.275455 
L 391.278643 140.34492 
L 391.992883 140.135058 
L 392.707123 140.106627 
L 393.421363 140.642713 
L 394.135603 139.969748 
L 394.849843 140.58292 
L 395.564083 140.710713 
L 396.278323 139.969455 
L 396.992563 140.177265 
L 397.706803 140.100765 
L 399.135283 140.189282 
L 400.563763 140.698403 
L 401.278003 140.122455 
L 402.706483 140.764644 
L 403.420723 140.251127 
L 404.134963 139.943369 
L 404.849203 140.198369 
L 405.563443 140.970402 
L 406.277683 140.678472 
L 406.991923 141.935591 
L 407.706163 140.094024 
L 408.420403 139.991731 
L 409.134643 140.295972 
L 409.848883 139.965059 
L 411.991603 140.212144 
L 414.134323 140.148834 
L 414.848563 139.920507 
L 414.848563 139.920507 
" style="fill:none;stroke:#0000ff;stroke-linecap:square;stroke-width:1.5;"/>
   </g>
   <g id="line2d_13">
    <path clip-path="url(#p880b478a6a)" d="M 58.31424 141.89485 
L 59.02848 142.264453 
L 59.74272 142.289366 
L 60.45696 142.034953 
L 61.1712 142.332453 
L 61.88544 142.232797 
L 63.31392 142.228987 
L 64.02816 142.041108 
L 64.7424 142.32278 
L 65.45664 142.331866 
L 66.17088 142.227522 
L 66.88512 142.331866 
L 67.59936 142.260642 
L 68.3136 142.369384 
L 69.02784 142.259763 
L 70.45632 142.439142 
L 71.8848 142.282918 
L 72.59904 142.435918 
L 73.31328 142.752176 
L 74.02752 142.754521 
L 74.74176 142.16216 
L 75.456 142.634935 
L 76.17024 142.248039 
L 76.88448 142.901659 
L 77.59872 142.236901 
L 78.31296 142.903711 
L 79.0272 142.855935 
L 79.74144 142.448228 
L 80.45568 142.911624 
L 81.88416 141.968125 
L 82.5984 142.892573 
L 84.02688 142.842452 
L 84.74112 141.268781 
L 85.45536 142.638159 
L 86.1696 142.9934 
L 87.59808 142.717004 
L 88.31232 142.998676 
L 89.02656 142.706159 
L 89.7408 143.00659 
L 91.16928 142.465814 
L 91.88352 142.920124 
L 92.59776 142.167142 
L 93.312 142.388435 
L 94.02624 142.005643 
L 94.74048 142.388728 
L 96.16896 142.975814 
L 96.8832 142.965848 
L 97.59744 142.596832 
L 98.31168 142.043746 
L 99.02592 142.719056 
L 99.74016 142.60709 
L 100.4544 142.938004 
L 101.16864 142.838935 
L 101.88288 142.911917 
L 103.31136 142.608849 
L 104.0256 142.998969 
L 104.73984 142.680952 
L 105.45408 142.651935 
L 106.16832 141.918591 
L 106.88256 142.95559 
L 108.31104 142.551401 
L 109.02528 142.879969 
L 111.168 142.633469 
L 111.88224 143.046159 
L 112.59648 142.983141 
L 113.31072 142.554918 
L 115.45344 142.992521 
L 116.16768 142.096504 
L 116.88192 142.978745 
L 117.59616 142.814021 
L 118.3104 143.005417 
L 119.02464 142.878211 
L 119.73888 143.002193 
L 120.45312 142.958814 
L 121.16736 142.548176 
L 121.8816 142.918073 
L 123.31008 143.013917 
L 124.02432 142.820469 
L 124.73856 143.051141 
L 126.16704 142.673331 
L 126.88128 143.042641 
L 127.59552 142.201435 
L 128.30976 142.899021 
L 129.024 143.019779 
L 129.73824 142.324246 
L 130.45248 142.80259 
L 131.16672 142.670107 
L 131.88096 143.006297 
L 134.02368 142.907521 
L 134.73792 142.147504 
L 135.45216 142.893159 
L 136.1664 142.893745 
L 136.88064 142.344763 
L 137.59488 142.46347 
L 138.30912 142.930383 
L 139.02336 142.9339 
L 139.7376 142.311056 
L 140.45184 142.809624 
L 141.16608 143.026521 
L 143.3088 142.750711 
L 144.02304 143.037072 
L 144.73728 142.952366 
L 145.45152 142.641676 
L 147.59424 143.037952 
L 151.16544 142.999848 
L 151.87968 142.183556 
L 152.59392 143.048503 
L 153.30816 142.325125 
L 154.0224 142.987538 
L 156.87936 143.003072 
L 157.5936 142.693556 
L 158.30784 143.040297 
L 160.45056 143.046159 
L 161.1648 142.041987 
L 161.87904 143.053193 
L 163.30752 142.999262 
L 164.02176 142.714952 
L 165.45024 143.032676 
L 166.16448 142.81959 
L 167.59296 143.00571 
L 168.3072 142.883193 
L 169.02144 143.051141 
L 169.73568 143.031797 
L 170.44992 142.559901 
L 171.16416 142.988124 
L 173.30688 143.03971 
L 174.02112 142.891693 
L 174.73536 142.979917 
L 175.4496 141.663298 
L 176.16384 142.296987 
L 176.87808 142.421849 
L 177.59232 143.028279 
L 178.30656 142.629952 
L 179.0208 143.012159 
L 180.44928 143.044693 
L 181.16352 142.720521 
L 181.87776 143.009814 
L 183.30624 143.001314 
L 184.02048 142.879969 
L 184.73472 143.042348 
L 186.87744 143.044986 
L 187.59168 142.104125 
L 188.30592 142.870883 
L 189.7344 142.987245 
L 191.87712 143.058176 
L 192.59136 142.72609 
L 193.3056 143.0614 
L 194.73408 142.9424 
L 195.44832 142.31809 
L 196.16256 141.929143 
L 196.8768 142.931555 
L 197.59104 143.070193 
L 199.73376 142.961159 
L 200.448 143.045572 
L 201.87648 142.983728 
L 203.30496 143.069021 
L 204.0192 142.953245 
L 204.73344 142.562538 
L 205.44768 142.921004 
L 208.30464 143.039124 
L 209.73312 142.96321 
L 210.44736 142.89228 
L 211.1616 143.052314 
L 212.59008 143.059055 
L 213.30432 142.218729 
L 214.01856 143.043521 
L 214.7328 142.783831 
L 215.44704 143.023297 
L 216.16128 142.7809 
L 217.58976 143.058176 
L 218.304 142.726969 
L 219.082522 142.973762 
L 219.796762 143.055538 
L 220.511002 142.974348 
L 221.225242 142.005056 
L 221.939482 143.0444 
L 225.510682 143.035021 
L 226.939162 143.037072 
L 227.653402 142.78559 
L 228.367642 143.026521 
L 229.796122 143.033848 
L 230.510362 142.953245 
L 231.224602 143.069314 
L 231.938842 142.662194 
L 234.081562 143.057003 
L 236.224282 143.028572 
L 236.938522 142.726969 
L 237.652762 143.04909 
L 238.367002 142.885538 
L 239.795482 143.050555 
L 243.366682 142.8914 
L 244.080922 143.052314 
L 245.509402 142.936831 
L 246.223642 143.064917 
L 249.794842 142.997504 
L 251.223322 143.063452 
L 251.937562 142.602107 
L 252.651802 142.409832 
L 253.366042 143.064917 
L 255.508762 143.050262 
L 256.223002 142.651642 
L 256.937242 143.054072 
L 259.794202 143.033262 
L 260.508442 142.769469 
L 261.222682 143.056124 
L 261.936922 142.831607 
L 262.651162 143.063452 
L 267.650842 143.051435 
L 268.365082 142.959107 
L 269.793562 143.067262 
L 270.507802 143.062866 
L 271.222042 141.903643 
L 271.936282 143.06521 
L 272.650522 143.006883 
L 273.364762 143.062572 
L 274.079002 142.94709 
L 277.650202 143.056124 
L 279.078682 143.023004 
L 281.221402 143.049969 
L 281.935642 142.869124 
L 282.649882 143.072538 
L 284.078362 142.964969 
L 284.792602 141.875212 
L 285.506842 142.990762 
L 286.221082 142.710262 
L 286.935322 142.696194 
L 287.649562 143.019779 
L 288.363802 142.106177 
L 289.078042 143.040003 
L 290.506522 143.022124 
L 291.220762 142.522383 
L 291.935002 142.984314 
L 293.363482 143.063159 
L 295.506202 143.04909 
L 299.077402 143.003659 
L 299.791642 142.825159 
L 300.505882 143.072245 
L 303.362842 142.999555 
L 305.505562 143.072831 
L 307.648282 143.057883 
L 308.362522 142.786762 
L 309.076762 142.831021 
L 309.791002 143.068728 
L 315.504922 143.067262 
L 316.219162 142.829849 
L 317.647642 143.003366 
L 319.076122 143.076348 
L 321.933082 143.050262 
L 322.647322 142.798487 
L 323.361562 143.004245 
L 324.790042 143.069607 
L 325.504282 142.972297 
L 326.218522 143.059935 
L 326.932762 141.87316 
L 327.647002 143.074883 
L 329.075482 143.074003 
L 329.789722 142.253901 
L 330.503962 143.071072 
L 338.360602 143.067555 
L 339.074842 142.670694 
L 339.789082 143.058469 
L 340.503322 143.041762 
L 341.217562 142.227815 
L 341.931802 143.072245 
L 342.646042 142.93859 
L 344.074522 143.048797 
L 344.788762 142.938004 
L 347.645722 143.064331 
L 348.359962 142.818124 
L 349.074202 143.043814 
L 350.502682 143.071072 
L 351.216922 142.753349 
L 351.931162 143.07459 
L 352.645402 142.726383 
L 353.359642 143.060228 
L 358.359322 143.059935 
L 359.073562 142.983141 
L 360.502042 143.07371 
L 361.216282 142.687107 
L 361.930522 143.04909 
L 365.501722 143.055538 
L 369.787162 143.064917 
L 370.501402 142.961159 
L 371.929882 143.07371 
L 382.707763 143.068141 
L 383.422003 142.996624 
L 384.850483 143.070779 
L 388.421683 143.068728 
L 389.135923 142.887004 
L 391.278643 143.065797 
L 392.707123 143.075176 
L 393.421363 142.860917 
L 394.135603 143.071952 
L 394.849843 142.025574 
L 395.564083 143.007762 
L 396.992563 143.066676 
L 399.135283 143.073417 
L 399.849523 141.662419 
L 400.563763 142.989883 
L 401.278003 143.075469 
L 401.992243 141.670039 
L 402.706483 142.532056 
L 403.420723 143.070779 
L 405.563443 142.956762 
L 406.277683 142.939469 
L 406.991923 142.109694 
L 407.706163 143.071072 
L 414.848563 143.071366 
L 414.848563 143.071366 
" style="fill:none;stroke:#008000;stroke-linecap:square;stroke-width:1.5;"/>
   </g>
   <g id="patch_3">
    <path d="M 57.6 147.9168 
L 57.6 41.472 
" style="fill:none;stroke:#000000;stroke-linecap:square;stroke-linejoin:miter;stroke-width:0.8;"/>
   </g>
   <g id="patch_4">
    <path d="M 414.72 147.9168 
L 414.72 41.472 
" style="fill:none;stroke:#000000;stroke-linecap:square;stroke-linejoin:miter;stroke-width:0.8;"/>
   </g>
   <g id="patch_5">
    <path d="M 57.6 147.9168 
L 414.72 147.9168 
" style="fill:none;stroke:#000000;stroke-linecap:square;stroke-linejoin:miter;stroke-width:0.8;"/>
   </g>
   <g id="patch_6">
    <path d="M 57.6 41.472 
L 414.72 41.472 
" style="fill:none;stroke:#000000;stroke-linecap:square;stroke-linejoin:miter;stroke-width:0.8;"/>
   </g>
   <g id="text_12">
    <!-- Loss Results -->
    <defs>
     <path id="DejaVuSans-32"/>
     <path d="M 44.390625 34.1875 
Q 47.5625 33.109375 50.5625 29.59375 
Q 53.5625 26.078125 56.59375 19.921875 
L 66.609375 0 
L 56 0 
L 46.6875 18.703125 
Q 43.0625 26.03125 39.671875 28.421875 
Q 36.28125 30.8125 30.421875 30.8125 
L 19.671875 30.8125 
L 19.671875 0 
L 9.8125 0 
L 9.8125 72.90625 
L 32.078125 72.90625 
Q 44.578125 72.90625 50.734375 67.671875 
Q 56.890625 62.453125 56.890625 51.90625 
Q 56.890625 45.015625 53.6875 40.46875 
Q 50.484375 35.9375 44.390625 34.1875 
z
M 19.671875 64.796875 
L 19.671875 38.921875 
L 32.078125 38.921875 
Q 39.203125 38.921875 42.84375 42.21875 
Q 46.484375 45.515625 46.484375 51.90625 
Q 46.484375 58.296875 42.84375 61.546875 
Q 39.203125 64.796875 32.078125 64.796875 
z
" id="DejaVuSans-82"/>
     <path d="M 56.203125 29.59375 
L 56.203125 25.203125 
L 14.890625 25.203125 
Q 15.484375 15.921875 20.484375 11.0625 
Q 25.484375 6.203125 34.421875 6.203125 
Q 39.59375 6.203125 44.453125 7.46875 
Q 49.3125 8.734375 54.109375 11.28125 
L 54.109375 2.78125 
Q 49.265625 0.734375 44.1875 -0.34375 
Q 39.109375 -1.421875 33.890625 -1.421875 
Q 20.796875 -1.421875 13.15625 6.1875 
Q 5.515625 13.8125 5.515625 26.8125 
Q 5.515625 40.234375 12.765625 48.109375 
Q 20.015625 56 32.328125 56 
Q 43.359375 56 49.78125 48.890625 
Q 56.203125 41.796875 56.203125 29.59375 
z
M 47.21875 32.234375 
Q 47.125 39.59375 43.09375 43.984375 
Q 39.0625 48.390625 32.421875 48.390625 
Q 24.90625 48.390625 20.390625 44.140625 
Q 15.875 39.890625 15.1875 32.171875 
z
" id="DejaVuSans-101"/>
     <path d="M 8.5 21.578125 
L 8.5 54.6875 
L 17.484375 54.6875 
L 17.484375 21.921875 
Q 17.484375 14.15625 20.5 10.265625 
Q 23.53125 6.390625 29.59375 6.390625 
Q 36.859375 6.390625 41.078125 11.03125 
Q 45.3125 15.671875 45.3125 23.6875 
L 45.3125 54.6875 
L 54.296875 54.6875 
L 54.296875 0 
L 45.3125 0 
L 45.3125 8.40625 
Q 42.046875 3.421875 37.71875 1 
Q 33.40625 -1.421875 27.6875 -1.421875 
Q 18.265625 -1.421875 13.375 4.4375 
Q 8.5 10.296875 8.5 21.578125 
z
M 31.109375 56 
z
" id="DejaVuSans-117"/>
     <path d="M 9.421875 75.984375 
L 18.40625 75.984375 
L 18.40625 0 
L 9.421875 0 
z
" id="DejaVuSans-108"/>
     <path d="M 18.3125 70.21875 
L 18.3125 54.6875 
L 36.8125 54.6875 
L 36.8125 47.703125 
L 18.3125 47.703125 
L 18.3125 18.015625 
Q 18.3125 11.328125 20.140625 9.421875 
Q 21.96875 7.515625 27.59375 7.515625 
L 36.8125 7.515625 
L 36.8125 0 
L 27.59375 0 
Q 17.1875 0 13.234375 3.875 
Q 9.28125 7.765625 9.28125 18.015625 
L 9.28125 47.703125 
L 2.6875 47.703125 
L 2.6875 54.6875 
L 9.28125 54.6875 
L 9.28125 70.21875 
z
" id="DejaVuSans-116"/>
    </defs>
    <g transform="translate(199.42875 35.472)scale(0.12 -0.12)">
     <use xlink:href="#DejaVuSans-76"/>
     <use x="53.962891" xlink:href="#DejaVuSans-111"/>
     <use x="115.144531" xlink:href="#DejaVuSans-115"/>
     <use x="167.244141" xlink:href="#DejaVuSans-115"/>
     <use x="219.34375" xlink:href="#DejaVuSans-32"/>
     <use x="251.130859" xlink:href="#DejaVuSans-82"/>
     <use x="316.113281" xlink:href="#DejaVuSans-101"/>
     <use x="377.636719" xlink:href="#DejaVuSans-115"/>
     <use x="429.736328" xlink:href="#DejaVuSans-117"/>
     <use x="493.115234" xlink:href="#DejaVuSans-108"/>
     <use x="520.898438" xlink:href="#DejaVuSans-116"/>
     <use x="560.107422" xlink:href="#DejaVuSans-115"/>
    </g>
   </g>
   <g id="legend_1">
    <g id="patch_7">
     <path d="M 326.715313 94.34075 
L 407.72 94.34075 
Q 409.72 94.34075 409.72 92.34075 
L 409.72 48.472 
Q 409.72 46.472 407.72 46.472 
L 326.715313 46.472 
Q 324.715313 46.472 324.715313 48.472 
L 324.715313 92.34075 
Q 324.715313 94.34075 326.715313 94.34075 
z
" style="fill:#ffffff;opacity:0.8;stroke:#cccccc;stroke-linejoin:miter;"/>
    </g>
    <g id="line2d_14">
     <path d="M 328.715313 54.570437 
L 348.715313 54.570437 
" style="fill:none;stroke:#ff0000;stroke-linecap:square;stroke-width:1.5;"/>
    </g>
    <g id="line2d_15"/>
    <g id="text_13">
     <!-- L1_Loss -->
     <defs>
      <path d="M 50.984375 -16.609375 
L 50.984375 -23.578125 
L -0.984375 -23.578125 
L -0.984375 -16.609375 
z
" id="DejaVuSans-95"/>
     </defs>
     <g transform="translate(356.715313 58.070437)scale(0.1 -0.1)">
      <use xlink:href="#DejaVuSans-76"/>
      <use x="55.712891" xlink:href="#DejaVuSans-49"/>
      <use x="119.335938" xlink:href="#DejaVuSans-95"/>
      <use x="169.335938" xlink:href="#DejaVuSans-76"/>
      <use x="223.298828" xlink:href="#DejaVuSans-111"/>
      <use x="284.480469" xlink:href="#DejaVuSans-115"/>
      <use x="336.580078" xlink:href="#DejaVuSans-115"/>
     </g>
    </g>
    <g id="line2d_16">
     <path d="M 328.715313 69.526687 
L 348.715313 69.526687 
" style="fill:none;stroke:#0000ff;stroke-linecap:square;stroke-width:1.5;"/>
    </g>
    <g id="line2d_17"/>
    <g id="text_14">
     <!-- GAN_Loss -->
     <defs>
      <path d="M 59.515625 10.40625 
L 59.515625 29.984375 
L 43.40625 29.984375 
L 43.40625 38.09375 
L 69.28125 38.09375 
L 69.28125 6.78125 
Q 63.578125 2.734375 56.6875 0.65625 
Q 49.8125 -1.421875 42 -1.421875 
Q 24.90625 -1.421875 15.25 8.5625 
Q 5.609375 18.5625 5.609375 36.375 
Q 5.609375 54.25 15.25 64.234375 
Q 24.90625 74.21875 42 74.21875 
Q 49.125 74.21875 55.546875 72.453125 
Q 61.96875 70.703125 67.390625 67.28125 
L 67.390625 56.78125 
Q 61.921875 61.421875 55.765625 63.765625 
Q 49.609375 66.109375 42.828125 66.109375 
Q 29.4375 66.109375 22.71875 58.640625 
Q 16.015625 51.171875 16.015625 36.375 
Q 16.015625 21.625 22.71875 14.15625 
Q 29.4375 6.6875 42.828125 6.6875 
Q 48.046875 6.6875 52.140625 7.59375 
Q 56.25 8.5 59.515625 10.40625 
z
" id="DejaVuSans-71"/>
      <path d="M 34.1875 63.1875 
L 20.796875 26.90625 
L 47.609375 26.90625 
z
M 28.609375 72.90625 
L 39.796875 72.90625 
L 67.578125 0 
L 57.328125 0 
L 50.6875 18.703125 
L 17.828125 18.703125 
L 11.1875 0 
L 0.78125 0 
z
" id="DejaVuSans-65"/>
      <path d="M 9.8125 72.90625 
L 23.09375 72.90625 
L 55.421875 11.921875 
L 55.421875 72.90625 
L 64.984375 72.90625 
L 64.984375 0 
L 51.703125 0 
L 19.390625 60.984375 
L 19.390625 0 
L 9.8125 0 
z
" id="DejaVuSans-78"/>
     </defs>
     <g transform="translate(356.715313 73.026687)scale(0.1 -0.1)">
      <use xlink:href="#DejaVuSans-71"/>
      <use x="77.490234" xlink:href="#DejaVuSans-65"/>
      <use x="145.898438" xlink:href="#DejaVuSans-78"/>
      <use x="220.703125" xlink:href="#DejaVuSans-95"/>
      <use x="270.703125" xlink:href="#DejaVuSans-76"/>
      <use x="324.666016" xlink:href="#DejaVuSans-111"/>
      <use x="385.847656" xlink:href="#DejaVuSans-115"/>
      <use x="437.947266" xlink:href="#DejaVuSans-115"/>
     </g>
    </g>
    <g id="line2d_18">
     <path d="M 328.715313 84.482937 
L 348.715313 84.482937 
" style="fill:none;stroke:#008000;stroke-linecap:square;stroke-width:1.5;"/>
    </g>
    <g id="line2d_19"/>
    <g id="text_15">
     <!-- D_Loss -->
     <defs>
      <path d="M 19.671875 64.796875 
L 19.671875 8.109375 
L 31.59375 8.109375 
Q 46.6875 8.109375 53.6875 14.9375 
Q 60.6875 21.78125 60.6875 36.53125 
Q 60.6875 51.171875 53.6875 57.984375 
Q 46.6875 64.796875 31.59375 64.796875 
z
M 9.8125 72.90625 
L 30.078125 72.90625 
Q 51.265625 72.90625 61.171875 64.09375 
Q 71.09375 55.28125 71.09375 36.53125 
Q 71.09375 17.671875 61.125 8.828125 
Q 51.171875 0 30.078125 0 
L 9.8125 0 
z
" id="DejaVuSans-68"/>
     </defs>
     <g transform="translate(356.715313 87.982937)scale(0.1 -0.1)">
      <use xlink:href="#DejaVuSans-68"/>
      <use x="77.001953" xlink:href="#DejaVuSans-95"/>
      <use x="127.001953" xlink:href="#DejaVuSans-76"/>
      <use x="180.964844" xlink:href="#DejaVuSans-111"/>
      <use x="242.146484" xlink:href="#DejaVuSans-115"/>
      <use x="294.246094" xlink:href="#DejaVuSans-115"/>
     </g>
    </g>
   </g>
  </g>
  <g id="axes_2">
   <g id="patch_8">
    <path d="M 57.6 307.584 
L 414.72 307.584 
L 414.72 201.1392 
L 57.6 201.1392 
z
" style="fill:#ffffff;"/>
   </g>
   <g id="matplotlib.axis_3">
    <g id="xtick_7">
     <g id="line2d_20">
      <g>
       <use style="stroke:#000000;stroke-width:0.8;" x="57.6" xlink:href="#ma951a4fc74" y="307.584"/>
      </g>
     </g>
     <g id="text_16">
      <!-- 0 -->
      <g transform="translate(54.41875 322.182437)scale(0.1 -0.1)">
       <use xlink:href="#DejaVuSans-48"/>
      </g>
     </g>
    </g>
    <g id="xtick_8">
     <g id="line2d_21">
      <g>
       <use style="stroke:#000000;stroke-width:0.8;" x="129.024" xlink:href="#ma951a4fc74" y="307.584"/>
      </g>
     </g>
     <g id="text_17">
      <!-- 10000 -->
      <g transform="translate(113.11775 322.182437)scale(0.1 -0.1)">
       <use xlink:href="#DejaVuSans-49"/>
       <use x="63.623047" xlink:href="#DejaVuSans-48"/>
       <use x="127.246094" xlink:href="#DejaVuSans-48"/>
       <use x="190.869141" xlink:href="#DejaVuSans-48"/>
       <use x="254.492188" xlink:href="#DejaVuSans-48"/>
      </g>
     </g>
    </g>
    <g id="xtick_9">
     <g id="line2d_22">
      <g>
       <use style="stroke:#000000;stroke-width:0.8;" x="200.448" xlink:href="#ma951a4fc74" y="307.584"/>
      </g>
     </g>
     <g id="text_18">
      <!-- 20000 -->
      <g transform="translate(184.54175 322.182437)scale(0.1 -0.1)">
       <use xlink:href="#DejaVuSans-50"/>
       <use x="63.623047" xlink:href="#DejaVuSans-48"/>
       <use x="127.246094" xlink:href="#DejaVuSans-48"/>
       <use x="190.869141" xlink:href="#DejaVuSans-48"/>
       <use x="254.492188" xlink:href="#DejaVuSans-48"/>
      </g>
     </g>
    </g>
    <g id="xtick_10">
     <g id="line2d_23">
      <g>
       <use style="stroke:#000000;stroke-width:0.8;" x="271.872" xlink:href="#ma951a4fc74" y="307.584"/>
      </g>
     </g>
     <g id="text_19">
      <!-- 30000 -->
      <g transform="translate(255.96575 322.182437)scale(0.1 -0.1)">
       <use xlink:href="#DejaVuSans-51"/>
       <use x="63.623047" xlink:href="#DejaVuSans-48"/>
       <use x="127.246094" xlink:href="#DejaVuSans-48"/>
       <use x="190.869141" xlink:href="#DejaVuSans-48"/>
       <use x="254.492188" xlink:href="#DejaVuSans-48"/>
      </g>
     </g>
    </g>
    <g id="xtick_11">
     <g id="line2d_24">
      <g>
       <use style="stroke:#000000;stroke-width:0.8;" x="343.296" xlink:href="#ma951a4fc74" y="307.584"/>
      </g>
     </g>
     <g id="text_20">
      <!-- 40000 -->
      <g transform="translate(327.38975 322.182437)scale(0.1 -0.1)">
       <use xlink:href="#DejaVuSans-52"/>
       <use x="63.623047" xlink:href="#DejaVuSans-48"/>
       <use x="127.246094" xlink:href="#DejaVuSans-48"/>
       <use x="190.869141" xlink:href="#DejaVuSans-48"/>
       <use x="254.492188" xlink:href="#DejaVuSans-48"/>
      </g>
     </g>
    </g>
    <g id="xtick_12">
     <g id="line2d_25">
      <g>
       <use style="stroke:#000000;stroke-width:0.8;" x="414.72" xlink:href="#ma951a4fc74" y="307.584"/>
      </g>
     </g>
     <g id="text_21">
      <!-- 50000 -->
      <g transform="translate(398.81375 322.182437)scale(0.1 -0.1)">
       <use xlink:href="#DejaVuSans-53"/>
       <use x="63.623047" xlink:href="#DejaVuSans-48"/>
       <use x="127.246094" xlink:href="#DejaVuSans-48"/>
       <use x="190.869141" xlink:href="#DejaVuSans-48"/>
       <use x="254.492188" xlink:href="#DejaVuSans-48"/>
      </g>
     </g>
    </g>
    <g id="text_22">
     <!-- iteration -->
     <defs>
      <path d="M 9.421875 54.6875 
L 18.40625 54.6875 
L 18.40625 0 
L 9.421875 0 
z
M 9.421875 75.984375 
L 18.40625 75.984375 
L 18.40625 64.59375 
L 9.421875 64.59375 
z
" id="DejaVuSans-105"/>
      <path d="M 41.109375 46.296875 
Q 39.59375 47.171875 37.8125 47.578125 
Q 36.03125 48 33.890625 48 
Q 26.265625 48 22.1875 43.046875 
Q 18.109375 38.09375 18.109375 28.8125 
L 18.109375 0 
L 9.078125 0 
L 9.078125 54.6875 
L 18.109375 54.6875 
L 18.109375 46.1875 
Q 20.953125 51.171875 25.484375 53.578125 
Q 30.03125 56 36.53125 56 
Q 37.453125 56 38.578125 55.875 
Q 39.703125 55.765625 41.0625 55.515625 
z
" id="DejaVuSans-114"/>
      <path d="M 34.28125 27.484375 
Q 23.390625 27.484375 19.1875 25 
Q 14.984375 22.515625 14.984375 16.5 
Q 14.984375 11.71875 18.140625 8.90625 
Q 21.296875 6.109375 26.703125 6.109375 
Q 34.1875 6.109375 38.703125 11.40625 
Q 43.21875 16.703125 43.21875 25.484375 
L 43.21875 27.484375 
z
M 52.203125 31.203125 
L 52.203125 0 
L 43.21875 0 
L 43.21875 8.296875 
Q 40.140625 3.328125 35.546875 0.953125 
Q 30.953125 -1.421875 24.3125 -1.421875 
Q 15.921875 -1.421875 10.953125 3.296875 
Q 6 8.015625 6 15.921875 
Q 6 25.140625 12.171875 29.828125 
Q 18.359375 34.515625 30.609375 34.515625 
L 43.21875 34.515625 
L 43.21875 35.40625 
Q 43.21875 41.609375 39.140625 45 
Q 35.0625 48.390625 27.6875 48.390625 
Q 23 48.390625 18.546875 47.265625 
Q 14.109375 46.140625 10.015625 43.890625 
L 10.015625 52.203125 
Q 14.9375 54.109375 19.578125 55.046875 
Q 24.21875 56 28.609375 56 
Q 40.484375 56 46.34375 49.84375 
Q 52.203125 43.703125 52.203125 31.203125 
z
" id="DejaVuSans-97"/>
      <path d="M 54.890625 33.015625 
L 54.890625 0 
L 45.90625 0 
L 45.90625 32.71875 
Q 45.90625 40.484375 42.875 44.328125 
Q 39.84375 48.1875 33.796875 48.1875 
Q 26.515625 48.1875 22.3125 43.546875 
Q 18.109375 38.921875 18.109375 30.90625 
L 18.109375 0 
L 9.078125 0 
L 9.078125 54.6875 
L 18.109375 54.6875 
L 18.109375 46.1875 
Q 21.34375 51.125 25.703125 53.5625 
Q 30.078125 56 35.796875 56 
Q 45.21875 56 50.046875 50.171875 
Q 54.890625 44.34375 54.890625 33.015625 
z
" id="DejaVuSans-110"/>
     </defs>
     <g transform="translate(215.037344 335.860562)scale(0.1 -0.1)">
      <use xlink:href="#DejaVuSans-105"/>
      <use x="27.783203" xlink:href="#DejaVuSans-116"/>
      <use x="66.992188" xlink:href="#DejaVuSans-101"/>
      <use x="128.515625" xlink:href="#DejaVuSans-114"/>
      <use x="169.628906" xlink:href="#DejaVuSans-97"/>
      <use x="230.908203" xlink:href="#DejaVuSans-116"/>
      <use x="270.117188" xlink:href="#DejaVuSans-105"/>
      <use x="297.900391" xlink:href="#DejaVuSans-111"/>
      <use x="359.082031" xlink:href="#DejaVuSans-110"/>
     </g>
    </g>
   </g>
   <g id="matplotlib.axis_4">
    <g id="ytick_5">
     <g id="line2d_26">
      <g>
       <use style="stroke:#000000;stroke-width:0.8;" x="57.6" xlink:href="#mb0d21b4893" y="307.584"/>
      </g>
     </g>
     <g id="text_23">
      <!-- 0.0 -->
      <defs>
       <path d="M 10.6875 12.40625 
L 21 12.40625 
L 21 0 
L 10.6875 0 
z
" id="DejaVuSans-46"/>
      </defs>
      <g transform="translate(34.696875 311.383219)scale(0.1 -0.1)">
       <use xlink:href="#DejaVuSans-48"/>
       <use x="63.623047" xlink:href="#DejaVuSans-46"/>
       <use x="95.410156" xlink:href="#DejaVuSans-48"/>
      </g>
     </g>
    </g>
    <g id="ytick_6">
     <g id="line2d_27">
      <g>
       <use style="stroke:#000000;stroke-width:0.8;" x="57.6" xlink:href="#mb0d21b4893" y="272.1024"/>
      </g>
     </g>
     <g id="text_24">
      <!-- 0.5 -->
      <g transform="translate(34.696875 275.901619)scale(0.1 -0.1)">
       <use xlink:href="#DejaVuSans-48"/>
       <use x="63.623047" xlink:href="#DejaVuSans-46"/>
       <use x="95.410156" xlink:href="#DejaVuSans-53"/>
      </g>
     </g>
    </g>
    <g id="ytick_7">
     <g id="line2d_28">
      <g>
       <use style="stroke:#000000;stroke-width:0.8;" x="57.6" xlink:href="#mb0d21b4893" y="236.6208"/>
      </g>
     </g>
     <g id="text_25">
      <!-- 1.0 -->
      <g transform="translate(34.696875 240.420019)scale(0.1 -0.1)">
       <use xlink:href="#DejaVuSans-49"/>
       <use x="63.623047" xlink:href="#DejaVuSans-46"/>
       <use x="95.410156" xlink:href="#DejaVuSans-48"/>
      </g>
     </g>
    </g>
    <g id="ytick_8">
     <g id="line2d_29">
      <g>
       <use style="stroke:#000000;stroke-width:0.8;" x="57.6" xlink:href="#mb0d21b4893" y="201.1392"/>
      </g>
     </g>
     <g id="text_26">
      <!-- 1.5 -->
      <g transform="translate(34.696875 204.938419)scale(0.1 -0.1)">
       <use xlink:href="#DejaVuSans-49"/>
       <use x="63.623047" xlink:href="#DejaVuSans-46"/>
       <use x="95.410156" xlink:href="#DejaVuSans-53"/>
      </g>
     </g>
    </g>
    <g id="text_27">
     <!-- Loss -->
     <g transform="translate(28.617188 265.328787)rotate(-90)scale(0.1 -0.1)">
      <use xlink:href="#DejaVuSans-76"/>
      <use x="53.962891" xlink:href="#DejaVuSans-111"/>
      <use x="115.144531" xlink:href="#DejaVuSans-115"/>
      <use x="167.244141" xlink:href="#DejaVuSans-115"/>
     </g>
    </g>
   </g>
   <g id="line2d_30">
    <path clip-path="url(#p6745b52427)" d="M 58.31424 278.879386 
L 59.02848 287.827845 
L 59.74272 288.431032 
L 60.45696 282.271427 
L 61.1712 289.474191 
L 61.88544 287.061443 
L 62.59968 287.763978 
L 63.31392 286.96919 
L 64.02816 282.420449 
L 64.7424 289.240013 
L 65.45664 289.459999 
L 66.17088 286.933709 
L 66.88512 289.459999 
L 67.59936 287.735593 
L 68.3136 290.368328 
L 69.02784 287.714304 
L 69.74208 290.389617 
L 70.45632 292.057252 
L 71.17056 290.51735 
L 71.8848 288.274913 
L 72.59904 291.979192 
L 73.31328 299.636122 
L 74.02752 299.692892 
L 74.74176 285.351229 
L 75.456 296.797594 
L 76.17024 287.430451 
L 76.88448 303.255245 
L 77.59872 287.160791 
L 78.31296 303.304919 
L 79.0272 302.148219 
L 79.74144 292.277238 
L 80.45568 303.49652 
L 81.88416 280.653466 
L 82.5984 303.035259 
L 83.31264 302.212086 
L 84.02688 301.821788 
L 84.74112 263.721646 
L 85.45536 296.875653 
L 86.1696 305.476393 
L 87.59808 298.784563 
L 88.31232 305.604127 
L 89.02656 298.521999 
L 89.7408 305.795727 
L 90.45504 299.742566 
L 91.16928 292.703017 
L 91.88352 303.702313 
L 92.59776 285.471867 
L 93.312 290.829588 
L 94.02624 281.561795 
L 94.74048 290.836685 
L 95.45472 296.854364 
L 96.16896 305.050614 
L 96.8832 304.809339 
L 97.59744 295.875072 
L 98.31168 282.484316 
L 99.02592 298.834237 
L 99.74016 296.123443 
L 100.4544 304.135188 
L 101.16864 301.736632 
L 101.88288 303.503616 
L 102.59712 299.160668 
L 103.31136 296.166021 
L 104.0256 305.611223 
L 104.73984 297.911716 
L 105.45408 297.20918 
L 106.16832 279.454188 
L 106.88256 304.560968 
L 107.5968 298.607155 
L 108.31104 294.775142 
L 109.02528 302.730117 
L 109.73952 300.572836 
L 110.45376 296.818883 
L 111.168 296.762112 
L 111.88224 306.753731 
L 112.59648 305.228022 
L 113.31072 294.860298 
L 114.02496 298.749082 
L 114.7392 300.764436 
L 115.45344 305.455104 
L 116.16768 283.761654 
L 116.88192 305.121577 
L 117.59616 301.133445 
L 118.3104 305.767342 
L 119.02464 302.687539 
L 119.73888 305.689283 
L 120.45312 304.639027 
L 121.16736 294.697083 
L 121.8816 303.652639 
L 122.59584 305.696379 
L 123.31008 305.973135 
L 124.02432 301.289564 
L 124.73856 306.874368 
L 125.4528 301.097964 
L 126.16704 297.727212 
L 126.88128 306.668575 
L 127.59552 286.302136 
L 128.30976 303.191378 
L 129.024 306.115062 
L 129.73824 289.275494 
L 130.45248 300.856689 
L 131.16672 297.649152 
L 131.88096 305.788631 
L 132.5952 305.249311 
L 133.30944 306.299566 
L 134.02368 303.397171 
L 134.73792 284.996413 
L 135.45216 303.049452 
L 136.1664 303.063644 
L 136.88064 289.772237 
L 137.59488 292.646246 
L 138.30912 303.950684 
L 139.02336 304.03584 
L 139.7376 288.95616 
L 140.45184 301.027 
L 141.16608 306.278277 
L 141.88032 304.199055 
L 142.59456 304.340982 
L 143.3088 299.60064 
L 144.02304 306.533745 
L 144.73728 304.482908 
L 145.45152 296.960809 
L 146.16576 300.544451 
L 146.88 305.334467 
L 147.59424 306.555034 
L 148.30848 306.200218 
L 149.02272 306.704056 
L 150.4512 305.2706 
L 151.16544 305.632512 
L 151.87968 285.869261 
L 152.59392 306.810501 
L 153.30816 289.296783 
L 154.0224 305.334467 
L 154.73664 304.78805 
L 155.45088 303.979069 
L 156.16512 304.135188 
L 156.87936 305.710572 
L 157.5936 298.216858 
L 158.30784 306.611804 
L 159.02208 306.342144 
L 159.73632 306.888561 
L 160.45056 306.753731 
L 161.1648 282.441738 
L 161.87904 306.924042 
L 162.59328 305.73186 
L 163.30752 305.618319 
L 164.02176 298.734889 
L 164.736 302.992681 
L 165.45024 306.4273 
L 166.16448 301.268275 
L 166.87872 303.1488 
L 167.59296 305.774438 
L 168.3072 302.808177 
L 169.02144 306.874368 
L 169.73568 306.406011 
L 170.44992 294.980936 
L 171.16416 305.348659 
L 171.8784 305.455104 
L 172.59264 303.028163 
L 173.30688 306.597612 
L 174.02112 303.01397 
L 174.73536 305.149962 
L 175.4496 273.273293 
L 176.16384 288.615537 
L 176.87808 291.638569 
L 177.59232 306.320855 
L 178.30656 296.676956 
L 179.0208 305.930557 
L 179.73504 305.958943 
L 180.44928 306.718249 
L 181.16352 298.869719 
L 181.87776 305.873787 
L 182.592 305.909268 
L 183.30624 305.667994 
L 184.02048 302.730117 
L 184.73472 306.661478 
L 185.44896 307.023391 
L 186.1632 306.753731 
L 186.87744 306.725345 
L 187.59168 283.946158 
L 188.30592 302.510131 
L 189.02016 304.70999 
L 189.7344 305.32737 
L 190.44864 305.511875 
L 191.16288 306.200218 
L 191.87712 307.04468 
L 192.59136 299.004549 
L 193.3056 307.122739 
L 194.01984 306.441492 
L 194.73408 304.241633 
L 195.44832 289.126472 
L 196.16256 279.709655 
L 196.8768 303.979069 
L 197.59104 307.335629 
L 198.30528 306.391818 
L 199.01952 306.682767 
L 199.73376 304.695798 
L 200.448 306.739538 
L 201.16224 305.80992 
L 201.87648 305.242214 
L 202.59072 306.760827 
L 203.30496 307.307244 
L 204.0192 304.504197 
L 204.73344 295.044803 
L 205.44768 303.723602 
L 206.16192 304.951265 
L 206.87616 304.57516 
L 207.5904 306.895657 
L 208.30464 306.583419 
L 209.01888 306.959524 
L 209.73312 304.745472 
L 210.44736 303.028163 
L 211.1616 306.902753 
L 211.87584 305.845402 
L 212.59008 307.065969 
L 213.30432 286.720819 
L 214.01856 306.689864 
L 214.7328 300.402524 
L 215.44704 306.200218 
L 216.16128 300.331561 
L 216.87552 304.568064 
L 217.58976 307.04468 
L 218.304 299.025838 
L 219.082522 305.00094 
L 219.796762 306.980813 
L 220.511002 305.015132 
L 221.225242 281.547602 
L 221.939482 306.711153 
L 222.653722 306.143447 
L 223.367962 307.300147 
L 224.082202 306.093773 
L 224.796442 305.88798 
L 225.510682 306.48407 
L 226.224922 306.583419 
L 226.939162 306.533745 
L 227.653402 300.445102 
L 228.367642 306.278277 
L 229.081882 307.214991 
L 229.796122 306.455685 
L 230.510362 304.504197 
L 231.224602 307.31434 
L 231.938842 297.457551 
L 232.653082 301.154734 
L 233.367322 306.611804 
L 234.795802 307.44917 
L 235.510042 306.093773 
L 236.224282 306.327951 
L 236.938522 299.025838 
L 237.652762 306.824694 
L 238.367002 302.864947 
L 239.081242 305.114481 
L 239.795482 306.860175 
L 240.509722 306.122158 
L 241.223962 307.23628 
L 241.938202 303.510712 
L 242.652442 305.88798 
L 243.366682 303.006874 
L 244.080922 306.902753 
L 244.795162 305.632512 
L 245.509402 304.106803 
L 246.223642 307.207895 
L 246.937882 306.675671 
L 247.652122 306.746634 
L 248.366362 307.193702 
L 249.080602 305.59703 
L 249.794842 305.575741 
L 250.509082 307.328532 
L 251.223322 307.172413 
L 251.937562 296.002806 
L 252.651802 291.34762 
L 253.366042 307.207895 
L 254.080282 306.668575 
L 254.794522 305.561549 
L 255.508762 306.853079 
L 256.223002 297.202084 
L 256.937242 306.945331 
L 257.651482 306.77502 
L 258.365722 306.384722 
L 259.079962 307.037583 
L 259.794202 306.441492 
L 260.508442 300.054804 
L 261.222682 306.995005 
L 261.936922 301.559224 
L 262.651162 307.172413 
L 263.365402 307.328532 
L 264.079642 307.243377 
L 264.793882 306.916946 
L 265.508122 307.356918 
L 266.222362 306.363433 
L 266.936602 305.59703 
L 267.650842 306.881464 
L 268.365082 304.646124 
L 269.079322 306.491167 
L 269.793562 307.264666 
L 270.507802 307.158221 
L 271.222042 279.092275 
L 271.936282 307.214991 
L 272.650522 305.802824 
L 273.364762 307.151124 
L 274.079002 304.355174 
L 274.793242 305.121577 
L 275.507482 307.165317 
L 276.221722 307.257569 
L 276.935962 306.945331 
L 277.650202 306.995005 
L 278.364442 305.298985 
L 279.078682 306.193121 
L 279.792922 306.711153 
L 280.507162 306.07958 
L 281.221402 306.845983 
L 281.935642 302.467553 
L 282.649882 307.392399 
L 283.364122 307.321436 
L 284.078362 304.78805 
L 284.792602 278.403932 
L 285.506842 305.412526 
L 286.221082 298.621348 
L 286.935322 298.280724 
L 287.649562 306.115062 
L 288.363802 283.995832 
L 289.078042 306.604708 
L 289.792282 307.44917 
L 290.506522 306.171832 
L 291.220762 294.072607 
L 291.935002 305.256407 
L 292.649242 306.817597 
L 293.363482 307.165317 
L 294.077722 306.299566 
L 294.791962 307.214991 
L 295.506202 306.824694 
L 296.934682 307.356918 
L 297.648922 307.04468 
L 298.363162 307.257569 
L 299.077402 305.724764 
L 299.791642 301.403105 
L 300.505882 307.385303 
L 301.220122 306.335048 
L 301.934362 307.37111 
L 302.648602 306.853079 
L 303.362842 305.625416 
L 304.077082 306.668575 
L 304.791322 307.392399 
L 305.505562 307.399496 
L 306.219802 307.04468 
L 306.934042 307.342725 
L 307.648282 307.037583 
L 308.362522 300.473487 
L 309.076762 301.545032 
L 309.791002 307.300147 
L 310.505242 307.271762 
L 311.219482 307.378207 
L 311.933722 306.256988 
L 312.647962 307.427881 
L 314.076442 306.817597 
L 315.504922 307.264666 
L 316.219162 301.516646 
L 316.933402 304.419041 
L 317.647642 305.717668 
L 318.361882 307.349821 
L 319.076122 307.484652 
L 319.790362 307.364014 
L 320.504602 307.406592 
L 321.218842 304.780954 
L 321.933082 306.853079 
L 322.647322 300.75734 
L 323.361562 305.738957 
L 324.075802 307.413688 
L 324.790042 307.321436 
L 325.504282 304.965458 
L 326.218522 307.087258 
L 326.932762 278.354258 
L 327.647002 307.44917 
L 328.361242 307.144028 
L 329.075482 307.427881 
L 329.789722 287.572378 
L 330.503962 307.356918 
L 331.218202 307.427881 
L 331.932442 307.207895 
L 332.646682 307.477555 
L 333.360922 307.463363 
L 334.075162 306.001521 
L 334.789402 307.335629 
L 335.503642 306.945331 
L 336.217882 307.456266 
L 336.932122 306.902753 
L 338.360602 307.271762 
L 339.074842 297.663345 
L 339.789082 307.051776 
L 340.503322 306.647286 
L 341.217562 286.940805 
L 341.931802 307.385303 
L 342.646042 304.149381 
L 343.360282 306.256988 
L 344.074522 306.817597 
L 344.788762 304.135188 
L 345.503002 305.32737 
L 346.217242 307.264666 
L 346.931482 307.356918 
L 347.645722 307.193702 
L 348.359962 301.232794 
L 349.074202 306.69696 
L 349.788442 306.462781 
L 350.502682 307.356918 
L 351.216922 299.664507 
L 351.931162 307.442074 
L 352.645402 299.011645 
L 353.359642 307.094354 
L 354.073882 307.293051 
L 354.788122 305.206733 
L 355.502362 305.88798 
L 356.216602 305.483489 
L 356.930842 307.278858 
L 357.645082 306.945331 
L 358.359322 307.087258 
L 359.073562 305.228022 
L 359.787802 307.406592 
L 360.502042 307.420785 
L 361.216282 298.060739 
L 361.930522 306.824694 
L 362.644762 307.385303 
L 364.073242 307.463363 
L 364.787482 307.406592 
L 365.501722 306.980813 
L 366.215962 307.434977 
L 366.930202 307.31434 
L 367.644442 307.378207 
L 368.358682 307.300147 
L 369.072922 307.058872 
L 369.787162 307.207895 
L 370.501402 304.695798 
L 371.215642 307.080161 
L 371.929882 307.420785 
L 372.644122 307.477555 
L 373.358362 307.335629 
L 375.501082 307.442074 
L 376.215322 307.207895 
L 376.929562 307.434977 
L 377.643802 307.442074 
L 379.072282 307.144028 
L 380.565043 307.115643 
L 381.279283 306.29247 
L 381.993523 306.895657 
L 382.707763 307.285955 
L 383.422003 305.554452 
L 384.136243 307.349821 
L 384.850483 307.349821 
L 386.278963 307.009198 
L 386.993203 306.377626 
L 387.707443 307.463363 
L 388.421683 307.300147 
L 389.135923 302.900429 
L 389.850163 304.695798 
L 390.564403 307.434977 
L 391.278643 307.229184 
L 391.992883 306.640189 
L 392.707123 307.456266 
L 393.421363 302.268856 
L 394.135603 307.378207 
L 394.849843 282.044344 
L 395.564083 305.824113 
L 396.278323 307.364014 
L 397.706803 307.193702 
L 398.421043 307.44917 
L 399.135283 307.413688 
L 399.849523 273.252004 
L 400.563763 305.391237 
L 401.278003 307.463363 
L 401.992243 273.436508 
L 402.706483 294.306785 
L 403.420723 307.349821 
L 404.134963 307.264666 
L 404.849203 306.711153 
L 405.563443 304.589353 
L 406.277683 304.17067 
L 406.991923 284.080988 
L 407.706163 307.356918 
L 411.991603 307.342725 
L 412.705843 307.229184 
L 413.420083 306.07958 
L 414.134323 307.50594 
L 414.848563 307.364014 
L 414.848563 307.364014 
" style="fill:none;stroke:#008000;stroke-linecap:square;stroke-width:1.5;"/>
   </g>
   <g id="line2d_31">
    <path clip-path="url(#p6745b52427)" d="M 58.31424 281.45535 
L 59.02848 287.040154 
L 59.74272 287.018865 
L 60.45696 285.436385 
L 61.1712 288.729078 
L 61.88544 280.156723 
L 62.59968 287.416259 
L 63.31392 287.430451 
L 64.7424 290.155438 
L 65.45664 286.465352 
L 66.17088 230.801818 
L 66.88512 289.055508 
L 67.59936 287.905905 
L 68.3136 287.359488 
L 69.02784 284.73385 
L 69.74208 286.273751 
L 70.45632 281.547602 
L 71.17056 282.569472 
L 71.8848 294.619023 
L 72.59904 259.286446 
L 73.31328 240.424428 
L 74.02752 246.129869 
L 74.74176 292.965581 
L 75.456 257.938145 
L 76.17024 292.561091 
L 76.88448 252.246897 
L 77.59872 296.464067 
L 78.31296 238.792274 
L 79.0272 252.062392 
L 79.74144 290.886359 
L 80.45568 211.215974 
L 81.16992 260.443146 
L 81.88416 270.243164 
L 82.5984 241.687572 
L 83.31264 279.33355 
L 84.02688 221.05857 
L 84.74112 295.193825 
L 85.45536 246.584033 
L 86.1696 247.847178 
L 86.88384 248.805181 
L 87.59808 235.258307 
L 88.31232 228.672922 
L 89.02656 270.257357 
L 89.7408 212.982958 
L 90.45504 284.804813 
L 91.16928 277.417544 
L 91.88352 262.643005 
L 92.59776 275.444767 
L 93.312 231.454679 
L 94.02624 282.938481 
L 94.74048 280.199301 
L 95.45472 273.379738 
L 96.16896 195.958886 
L 96.8832 230.89407 
L 97.59744 249.294828 
L 98.31168 287.7214 
L 99.02592 250.40895 
L 99.74016 278.474895 
L 100.4544 280.192205 
L 101.16864 255.695708 
L 101.88288 254.489334 
L 102.59712 277.055631 
L 103.31136 229.850911 
L 104.0256 245.349274 
L 104.73984 276.367288 
L 105.45408 266.723389 
L 106.16832 295.825398 
L 106.88256 246.413722 
L 107.5968 209.612206 
L 108.31104 265.886024 
L 109.02528 256.561459 
L 109.73952 266.659523 
L 110.45376 285.109955 
L 111.168 258.690355 
L 111.88224 244.022262 
L 112.59648 220.270879 
L 113.31072 290.645084 
L 114.02496 262.039818 
L 114.7392 270.576691 
L 115.45344 244.575775 
L 116.16768 282.753976 
L 116.88192 254.567393 
L 117.59616 255.284122 
L 118.3104 249.748992 
L 119.02464 265.949891 
L 119.73888 251.991429 
L 120.45312 264.445471 
L 121.16736 297.07435 
L 122.59584 220.44119 
L 123.31008 237.607188 
L 124.02432 241.786921 
L 124.73856 232.987484 
L 125.4528 253.495849 
L 126.16704 252.289475 
L 126.88128 234.335785 
L 127.59552 271.995955 
L 128.30976 237.85556 
L 129.024 213.167462 
L 129.73824 280.511539 
L 130.45248 259.300639 
L 131.16672 272.031437 
L 131.88096 242.886851 
L 133.30944 234.584156 
L 134.02368 226.962708 
L 134.73792 207.21365 
L 135.45216 237.621381 
L 136.1664 250.8915 
L 136.88064 272.003052 
L 137.59488 260.726999 
L 138.30912 247.222702 
L 139.02336 273.613916 
L 139.7376 286.195692 
L 140.45184 265.62346 
L 141.16608 240.587643 
L 141.88032 247.832986 
L 142.59456 260.308316 
L 143.3088 253.95711 
L 144.02304 230.929551 
L 144.73728 246.740152 
L 145.45152 250.912788 
L 146.16576 243.50423 
L 146.88 250.699899 
L 147.59424 241.53855 
L 148.30848 239.785759 
L 149.02272 242.276567 
L 149.73696 246.186639 
L 150.4512 245.164769 
L 151.16544 237.983293 
L 151.87968 283.570053 
L 152.59392 245.370563 
L 153.30816 261.401149 
L 154.0224 253.197804 
L 154.73664 260.932792 
L 155.45088 245.100902 
L 156.16512 242.233989 
L 156.87936 241.084385 
L 157.5936 276.729201 
L 158.30784 232.966195 
L 159.02208 240.630221 
L 159.73632 246.974331 
L 160.45056 243.511327 
L 161.1648 281.980477 
L 161.87904 231.766917 
L 162.59328 228.303913 
L 163.30752 243.880335 
L 164.02176 256.660808 
L 164.736 256.341473 
L 165.45024 243.376497 
L 166.16448 238.487132 
L 166.87872 255.305411 
L 167.59296 227.906519 
L 168.3072 262.025626 
L 169.02144 241.928847 
L 169.73568 230.532157 
L 170.44992 252.892662 
L 171.16416 236.556933 
L 171.8784 242.127544 
L 172.59264 258.945823 
L 173.30688 233.966776 
L 174.02112 239.636736 
L 174.73536 238.948393 
L 175.4496 259.967693 
L 176.16384 242.127544 
L 176.87808 259.563203 
L 177.59232 242.666865 
L 178.30656 270.846351 
L 179.0208 238.451651 
L 179.73504 247.676867 
L 180.44928 242.567516 
L 181.16352 238.558095 
L 181.87776 237.259469 
L 182.592 234.605445 
L 183.30624 236.54274 
L 184.02048 236.244695 
L 184.73472 235.563448 
L 185.44896 244.81705 
L 186.1632 241.914655 
L 186.87744 245.41314 
L 187.59168 276.126013 
L 188.30592 239.55158 
L 189.02016 226.508544 
L 189.7344 239.182572 
L 190.44864 247.229798 
L 191.16288 228.055542 
L 191.87712 235.59893 
L 192.59136 224.663501 
L 194.01984 239.473521 
L 194.73408 238.7426 
L 195.44832 265.822157 
L 196.16256 272.599142 
L 196.8768 212.393964 
L 197.59104 238.948393 
L 198.30528 235.790531 
L 199.01952 246.78273 
L 199.73376 247.407206 
L 200.448 236.13825 
L 201.16224 236.031805 
L 201.87648 248.060068 
L 202.59072 246.818212 
L 203.30496 235.527967 
L 204.0192 247.137546 
L 204.73344 271.96757 
L 205.44768 269.987697 
L 206.16192 237.976197 
L 206.87616 260.741192 
L 207.5904 241.212119 
L 208.30464 238.189087 
L 209.01888 229.134182 
L 209.73312 255.390566 
L 210.44736 235.542159 
L 211.1616 241.084385 
L 211.87584 249.557391 
L 212.59008 234.243533 
L 213.30432 262.0753 
L 214.01856 245.384755 
L 215.44704 238.366495 
L 216.16128 251.047619 
L 216.87552 254.042266 
L 217.58976 237.039483 
L 218.304 225.266688 
L 219.082522 255.433144 
L 219.796762 231.632087 
L 220.511002 264.360315 
L 221.225242 241.077289 
L 221.939482 243.270052 
L 222.653722 221.299845 
L 223.367962 236.642089 
L 224.082202 223.464223 
L 224.796442 237.919427 
L 225.510682 247.421399 
L 226.224922 243.497134 
L 226.939162 236.379525 
L 227.653402 243.440364 
L 228.367642 233.001677 
L 229.081882 233.328108 
L 229.796122 234.428037 
L 230.510362 232.292045 
L 231.224602 234.470615 
L 231.938842 271.335997 
L 232.653082 248.63487 
L 233.367322 246.51307 
L 234.081562 235.336366 
L 235.510042 238.983875 
L 236.224282 245.271214 
L 236.938522 237.302047 
L 237.652762 225.266688 
L 238.367002 243.624868 
L 239.081242 242.113352 
L 239.795482 235.407329 
L 240.509722 244.235151 
L 241.223962 228.601958 
L 241.938202 256.007946 
L 242.652442 248.457462 
L 243.366682 247.435592 
L 244.080922 237.578803 
L 244.795162 243.944202 
L 245.509402 239.054838 
L 246.223642 231.277271 
L 246.937882 242.851369 
L 247.652122 242.297856 
L 248.366362 233.753887 
L 249.080602 250.06123 
L 249.794842 246.044713 
L 250.509082 234.03774 
L 251.223322 238.501325 
L 251.937562 259.868344 
L 252.651802 249.621258 
L 253.366042 231.759821 
L 254.080282 237.266565 
L 254.794522 244.788664 
L 255.508762 238.359398 
L 256.223002 221.910129 
L 257.651482 241.226312 
L 258.365722 230.376038 
L 259.079962 244.774472 
L 259.794202 248.69164 
L 260.508442 270.143816 
L 261.222682 241.474683 
L 261.936922 252.715254 
L 263.365402 234.491904 
L 264.079642 232.192696 
L 264.793882 233.292626 
L 265.508122 235.584737 
L 266.222362 234.477711 
L 266.936602 229.957356 
L 267.650842 242.07787 
L 268.365082 238.87743 
L 269.079322 227.07625 
L 269.793562 238.068449 
L 270.507802 231.965614 
L 271.222042 272.769454 
L 271.936282 245.675704 
L 272.650522 223.230044 
L 273.364762 241.40372 
L 274.079002 219.610921 
L 274.793242 232.59009 
L 275.507482 238.884526 
L 276.221722 231.844977 
L 276.935962 237.145928 
L 277.650202 229.865103 
L 278.364442 244.731894 
L 279.078682 250.522491 
L 279.792922 240.51668 
L 280.507162 248.712929 
L 281.221402 243.830661 
L 281.935642 253.240381 
L 282.649882 238.458747 
L 283.364122 238.430362 
L 284.078362 282.20756 
L 284.792602 256.667904 
L 285.506842 255.702804 
L 286.221082 251.125678 
L 286.935322 222.250752 
L 287.649562 236.75563 
L 288.363802 256.178258 
L 289.078042 248.159416 
L 289.792282 235.6557 
L 290.506522 238.820659 
L 291.220762 250.934077 
L 291.935002 250.174771 
L 292.649242 245.4912 
L 293.363482 238.054257 
L 294.077722 223.542282 
L 294.791962 243.191992 
L 295.506202 244.377078 
L 296.220442 237.110446 
L 296.934682 237.42978 
L 297.648922 244.838339 
L 298.363162 242.397204 
L 299.077402 248.280054 
L 299.791642 238.366495 
L 300.505882 238.018775 
L 301.220122 248.819374 
L 301.934362 240.580547 
L 302.648602 249.905111 
L 303.362842 251.806925 
L 304.077082 243.411978 
L 304.791322 237.500744 
L 305.505562 234.484808 
L 306.219802 244.838339 
L 306.934042 235.371848 
L 307.648282 240.083804 
L 308.362522 237.919427 
L 309.076762 251.586939 
L 309.791002 230.390231 
L 310.505242 236.223406 
L 311.219482 237.323336 
L 311.933722 237.85556 
L 312.647962 237.656863 
L 313.362202 241.609513 
L 314.076442 241.368238 
L 314.790682 243.830661 
L 315.504922 242.397204 
L 316.219162 266.730486 
L 316.933402 234.193859 
L 317.647642 250.73538 
L 318.361882 239.026452 
L 319.076122 236.358236 
L 319.790362 236.869171 
L 320.504602 234.669312 
L 321.218842 231.412101 
L 321.933082 244.760279 
L 322.647322 248.492943 
L 323.361562 248.641966 
L 324.075802 238.806467 
L 324.790042 235.151862 
L 325.504282 247.875564 
L 326.218522 245.505393 
L 326.932762 274.940928 
L 327.647002 235.208632 
L 328.361242 239.501906 
L 329.075482 233.74679 
L 329.789722 242.595901 
L 330.503962 241.205023 
L 331.218202 232.405586 
L 331.932442 243.63906 
L 332.646682 237.060772 
L 333.360922 236.422103 
L 334.075162 245.902787 
L 334.789402 240.076708 
L 335.503642 227.225272 
L 336.217882 235.336366 
L 336.932122 229.332879 
L 337.646362 232.270756 
L 338.360602 234.279014 
L 339.074842 232.164311 
L 339.789082 232.703631 
L 340.503322 245.498296 
L 341.217562 287.238851 
L 341.931802 230.475387 
L 342.646042 250.614743 
L 343.360282 244.291922 
L 344.074522 231.809495 
L 344.788762 259.293542 
L 345.503002 251.260508 
L 346.217242 234.63383 
L 346.931482 237.117542 
L 347.645722 243.79518 
L 348.359962 257.150454 
L 349.074202 240.928266 
L 349.788442 251.423724 
L 350.502682 235.705375 
L 351.216922 259.087749 
L 351.931162 236.35114 
L 352.645402 255.049943 
L 353.359642 231.575316 
L 354.073882 231.51145 
L 354.788122 239.572869 
L 356.216602 260.549591 
L 356.930842 231.199212 
L 357.645082 243.433267 
L 358.359322 228.587766 
L 359.073562 250.863114 
L 359.787802 239.572869 
L 360.502042 237.678152 
L 361.216282 247.045294 
L 361.930522 245.342177 
L 362.644762 237.550418 
L 363.359002 235.627315 
L 364.073242 234.704794 
L 364.787482 236.038902 
L 365.501722 244.696412 
L 366.215962 237.862656 
L 366.930202 236.145347 
L 367.644442 237.600092 
L 368.358682 240.821821 
L 369.072922 242.0211 
L 369.787162 243.965491 
L 371.215642 230.347653 
L 371.929882 234.420941 
L 372.644122 234.122895 
L 373.358362 238.749696 
L 374.072602 240.43862 
L 374.786842 232.66815 
L 375.501082 232.831365 
L 376.215322 244.149996 
L 376.929562 233.839043 
L 377.643802 236.35114 
L 378.358042 241.240504 
L 379.072282 232.164311 
L 379.850803 243.85195 
L 380.565043 242.177219 
L 381.279283 234.896394 
L 381.993523 245.327985 
L 382.707763 234.22934 
L 383.422003 243.220378 
L 384.136243 234.385459 
L 384.850483 241.311468 
L 386.278963 238.849044 
L 386.993203 251.111485 
L 387.707443 237.245276 
L 388.421683 232.80298 
L 389.135923 243.922913 
L 389.850163 256.824023 
L 390.564403 239.672218 
L 391.278643 241.354045 
L 391.992883 236.27308 
L 392.707123 235.584737 
L 393.421363 248.563907 
L 394.135603 232.270756 
L 394.849843 247.116257 
L 395.564083 250.210253 
L 396.278323 232.26366 
L 396.992563 237.29495 
L 397.706803 235.442811 
L 398.421043 236.40791 
L 399.135283 237.5859 
L 399.849523 244.675123 
L 400.563763 249.912207 
L 401.278003 235.967939 
L 401.992243 244.973169 
L 402.706483 251.515976 
L 403.420723 239.083223 
L 404.134963 231.632087 
L 404.849203 237.805885 
L 405.563443 256.497592 
L 406.277683 249.429658 
L 406.991923 279.865774 
L 407.706163 235.279596 
L 408.420403 232.80298 
L 409.134643 240.16896 
L 409.848883 232.157215 
L 410.563123 234.399652 
L 411.277363 237.344625 
L 411.991603 238.139412 
L 412.705843 237.91233 
L 413.420083 238.962586 
L 414.134323 236.606607 
L 414.848563 231.078574 
L 414.848563 231.078574 
" style="fill:none;stroke:#0000ff;stroke-linecap:square;stroke-width:1.5;"/>
   </g>
   <g id="patch_9">
    <path d="M 57.6 307.584 
L 57.6 201.1392 
" style="fill:none;stroke:#000000;stroke-linecap:square;stroke-linejoin:miter;stroke-width:0.8;"/>
   </g>
   <g id="patch_10">
    <path d="M 414.72 307.584 
L 414.72 201.1392 
" style="fill:none;stroke:#000000;stroke-linecap:square;stroke-linejoin:miter;stroke-width:0.8;"/>
   </g>
   <g id="patch_11">
    <path d="M 57.6 307.584 
L 414.72 307.584 
" style="fill:none;stroke:#000000;stroke-linecap:square;stroke-linejoin:miter;stroke-width:0.8;"/>
   </g>
   <g id="patch_12">
    <path d="M 57.6 201.1392 
L 414.72 201.1392 
" style="fill:none;stroke:#000000;stroke-linecap:square;stroke-linejoin:miter;stroke-width:0.8;"/>
   </g>
  </g>
 </g>
 <defs>
  <clipPath id="p880b478a6a">
   <rect height="106.4448" width="357.12" x="57.6" y="41.472"/>
  </clipPath>
  <clipPath id="p6745b52427">
   <rect height="106.4448" width="357.12" x="57.6" y="201.1392"/>
  </clipPath>
 </defs>
</svg>
