<?xml version="1.0" encoding="utf-8" standalone="no"?>
<!DOCTYPE svg PUBLIC "-//W3C//DTD SVG 1.1//EN"
  "http://www.w3.org/Graphics/SVG/1.1/DTD/svg11.dtd">
<!-- Created with matplotlib (https://matplotlib.org/) -->
<svg height="345.6pt" version="1.1" viewBox="0 0 460.8 345.6" width="460.8pt" xmlns="http://www.w3.org/2000/svg" xmlns:xlink="http://www.w3.org/1999/xlink">
 <defs>
  <style type="text/css">
*{stroke-linecap:butt;stroke-linejoin:round;}
  </style>
 </defs>
 <g id="figure_1">
  <g id="patch_1">
   <path d="M 0 345.6 
L 460.8 345.6 
L 460.8 0 
L 0 0 
z
" style="fill:#ffffff;"/>
  </g>
  <g id="axes_1">
   <g id="patch_2">
    <path d="M 57.6 147.9168 
L 414.72 147.9168 
L 414.72 41.472 
L 57.6 41.472 
z
" style="fill:#ffffff;"/>
   </g>
   <g id="matplotlib.axis_1">
    <g id="xtick_1">
     <g id="line2d_1">
      <defs>
       <path d="M 0 0 
L 0 3.5 
" id="m0bc157892a" style="stroke:#000000;stroke-width:0.8;"/>
      </defs>
      <g>
       <use style="stroke:#000000;stroke-width:0.8;" x="71.790875" xlink:href="#m0bc157892a" y="147.9168"/>
      </g>
     </g>
     <g id="text_1">
      <!-- 0 -->
      <defs>
       <path d="M 31.78125 66.40625 
Q 24.171875 66.40625 20.328125 58.90625 
Q 16.5 51.421875 16.5 36.375 
Q 16.5 21.390625 20.328125 13.890625 
Q 24.171875 6.390625 31.78125 6.390625 
Q 39.453125 6.390625 43.28125 13.890625 
Q 47.125 21.390625 47.125 36.375 
Q 47.125 51.421875 43.28125 58.90625 
Q 39.453125 66.40625 31.78125 66.40625 
z
M 31.78125 74.21875 
Q 44.046875 74.21875 50.515625 64.515625 
Q 56.984375 54.828125 56.984375 36.375 
Q 56.984375 17.96875 50.515625 8.265625 
Q 44.046875 -1.421875 31.78125 -1.421875 
Q 19.53125 -1.421875 13.0625 8.265625 
Q 6.59375 17.96875 6.59375 36.375 
Q 6.59375 54.828125 13.0625 64.515625 
Q 19.53125 74.21875 31.78125 74.21875 
z
" id="DejaVuSans-48"/>
      </defs>
      <g transform="translate(68.609625 162.515237)scale(0.1 -0.1)">
       <use xlink:href="#DejaVuSans-48"/>
      </g>
     </g>
    </g>
    <g id="xtick_2">
     <g id="line2d_2">
      <g>
       <use style="stroke:#000000;stroke-width:0.8;" x="112.627925" xlink:href="#m0bc157892a" y="147.9168"/>
      </g>
     </g>
     <g id="text_2">
      <!-- 20 -->
      <defs>
       <path d="M 19.1875 8.296875 
L 53.609375 8.296875 
L 53.609375 0 
L 7.328125 0 
L 7.328125 8.296875 
Q 12.9375 14.109375 22.625 23.890625 
Q 32.328125 33.6875 34.8125 36.53125 
Q 39.546875 41.84375 41.421875 45.53125 
Q 43.3125 49.21875 43.3125 52.78125 
Q 43.3125 58.59375 39.234375 62.25 
Q 35.15625 65.921875 28.609375 65.921875 
Q 23.96875 65.921875 18.8125 64.3125 
Q 13.671875 62.703125 7.8125 59.421875 
L 7.8125 69.390625 
Q 13.765625 71.78125 18.9375 73 
Q 24.125 74.21875 28.421875 74.21875 
Q 39.75 74.21875 46.484375 68.546875 
Q 53.21875 62.890625 53.21875 53.421875 
Q 53.21875 48.921875 51.53125 44.890625 
Q 49.859375 40.875 45.40625 35.40625 
Q 44.1875 33.984375 37.640625 27.21875 
Q 31.109375 20.453125 19.1875 8.296875 
z
" id="DejaVuSans-50"/>
      </defs>
      <g transform="translate(106.265425 162.515237)scale(0.1 -0.1)">
       <use xlink:href="#DejaVuSans-50"/>
       <use x="63.623047" xlink:href="#DejaVuSans-48"/>
      </g>
     </g>
    </g>
    <g id="xtick_3">
     <g id="line2d_3">
      <g>
       <use style="stroke:#000000;stroke-width:0.8;" x="153.464974" xlink:href="#m0bc157892a" y="147.9168"/>
      </g>
     </g>
     <g id="text_3">
      <!-- 40 -->
      <defs>
       <path d="M 37.796875 64.3125 
L 12.890625 25.390625 
L 37.796875 25.390625 
z
M 35.203125 72.90625 
L 47.609375 72.90625 
L 47.609375 25.390625 
L 58.015625 25.390625 
L 58.015625 17.1875 
L 47.609375 17.1875 
L 47.609375 0 
L 37.796875 0 
L 37.796875 17.1875 
L 4.890625 17.1875 
L 4.890625 26.703125 
z
" id="DejaVuSans-52"/>
      </defs>
      <g transform="translate(147.102474 162.515237)scale(0.1 -0.1)">
       <use xlink:href="#DejaVuSans-52"/>
       <use x="63.623047" xlink:href="#DejaVuSans-48"/>
      </g>
     </g>
    </g>
    <g id="xtick_4">
     <g id="line2d_4">
      <g>
       <use style="stroke:#000000;stroke-width:0.8;" x="194.302024" xlink:href="#m0bc157892a" y="147.9168"/>
      </g>
     </g>
     <g id="text_4">
      <!-- 60 -->
      <defs>
       <path d="M 33.015625 40.375 
Q 26.375 40.375 22.484375 35.828125 
Q 18.609375 31.296875 18.609375 23.390625 
Q 18.609375 15.53125 22.484375 10.953125 
Q 26.375 6.390625 33.015625 6.390625 
Q 39.65625 6.390625 43.53125 10.953125 
Q 47.40625 15.53125 47.40625 23.390625 
Q 47.40625 31.296875 43.53125 35.828125 
Q 39.65625 40.375 33.015625 40.375 
z
M 52.59375 71.296875 
L 52.59375 62.3125 
Q 48.875 64.0625 45.09375 64.984375 
Q 41.3125 65.921875 37.59375 65.921875 
Q 27.828125 65.921875 22.671875 59.328125 
Q 17.53125 52.734375 16.796875 39.40625 
Q 19.671875 43.65625 24.015625 45.921875 
Q 28.375 48.1875 33.59375 48.1875 
Q 44.578125 48.1875 50.953125 41.515625 
Q 57.328125 34.859375 57.328125 23.390625 
Q 57.328125 12.15625 50.6875 5.359375 
Q 44.046875 -1.421875 33.015625 -1.421875 
Q 20.359375 -1.421875 13.671875 8.265625 
Q 6.984375 17.96875 6.984375 36.375 
Q 6.984375 53.65625 15.1875 63.9375 
Q 23.390625 74.21875 37.203125 74.21875 
Q 40.921875 74.21875 44.703125 73.484375 
Q 48.484375 72.75 52.59375 71.296875 
z
" id="DejaVuSans-54"/>
      </defs>
      <g transform="translate(187.939524 162.515237)scale(0.1 -0.1)">
       <use xlink:href="#DejaVuSans-54"/>
       <use x="63.623047" xlink:href="#DejaVuSans-48"/>
      </g>
     </g>
    </g>
    <g id="xtick_5">
     <g id="line2d_5">
      <g>
       <use style="stroke:#000000;stroke-width:0.8;" x="235.139074" xlink:href="#m0bc157892a" y="147.9168"/>
      </g>
     </g>
     <g id="text_5">
      <!-- 80 -->
      <defs>
       <path d="M 31.78125 34.625 
Q 24.75 34.625 20.71875 30.859375 
Q 16.703125 27.09375 16.703125 20.515625 
Q 16.703125 13.921875 20.71875 10.15625 
Q 24.75 6.390625 31.78125 6.390625 
Q 38.8125 6.390625 42.859375 10.171875 
Q 46.921875 13.96875 46.921875 20.515625 
Q 46.921875 27.09375 42.890625 30.859375 
Q 38.875 34.625 31.78125 34.625 
z
M 21.921875 38.8125 
Q 15.578125 40.375 12.03125 44.71875 
Q 8.5 49.078125 8.5 55.328125 
Q 8.5 64.0625 14.71875 69.140625 
Q 20.953125 74.21875 31.78125 74.21875 
Q 42.671875 74.21875 48.875 69.140625 
Q 55.078125 64.0625 55.078125 55.328125 
Q 55.078125 49.078125 51.53125 44.71875 
Q 48 40.375 41.703125 38.8125 
Q 48.828125 37.15625 52.796875 32.3125 
Q 56.78125 27.484375 56.78125 20.515625 
Q 56.78125 9.90625 50.3125 4.234375 
Q 43.84375 -1.421875 31.78125 -1.421875 
Q 19.734375 -1.421875 13.25 4.234375 
Q 6.78125 9.90625 6.78125 20.515625 
Q 6.78125 27.484375 10.78125 32.3125 
Q 14.796875 37.15625 21.921875 38.8125 
z
M 18.3125 54.390625 
Q 18.3125 48.734375 21.84375 45.5625 
Q 25.390625 42.390625 31.78125 42.390625 
Q 38.140625 42.390625 41.71875 45.5625 
Q 45.3125 48.734375 45.3125 54.390625 
Q 45.3125 60.0625 41.71875 63.234375 
Q 38.140625 66.40625 31.78125 66.40625 
Q 25.390625 66.40625 21.84375 63.234375 
Q 18.3125 60.0625 18.3125 54.390625 
z
" id="DejaVuSans-56"/>
      </defs>
      <g transform="translate(228.776574 162.515237)scale(0.1 -0.1)">
       <use xlink:href="#DejaVuSans-56"/>
       <use x="63.623047" xlink:href="#DejaVuSans-48"/>
      </g>
     </g>
    </g>
    <g id="xtick_6">
     <g id="line2d_6">
      <g>
       <use style="stroke:#000000;stroke-width:0.8;" x="275.976123" xlink:href="#m0bc157892a" y="147.9168"/>
      </g>
     </g>
     <g id="text_6">
      <!-- 100 -->
      <defs>
       <path d="M 12.40625 8.296875 
L 28.515625 8.296875 
L 28.515625 63.921875 
L 10.984375 60.40625 
L 10.984375 69.390625 
L 28.421875 72.90625 
L 38.28125 72.90625 
L 38.28125 8.296875 
L 54.390625 8.296875 
L 54.390625 0 
L 12.40625 0 
z
" id="DejaVuSans-49"/>
      </defs>
      <g transform="translate(266.432373 162.515237)scale(0.1 -0.1)">
       <use xlink:href="#DejaVuSans-49"/>
       <use x="63.623047" xlink:href="#DejaVuSans-48"/>
       <use x="127.246094" xlink:href="#DejaVuSans-48"/>
      </g>
     </g>
    </g>
    <g id="xtick_7">
     <g id="line2d_7">
      <g>
       <use style="stroke:#000000;stroke-width:0.8;" x="316.813173" xlink:href="#m0bc157892a" y="147.9168"/>
      </g>
     </g>
     <g id="text_7">
      <!-- 120 -->
      <g transform="translate(307.269423 162.515237)scale(0.1 -0.1)">
       <use xlink:href="#DejaVuSans-49"/>
       <use x="63.623047" xlink:href="#DejaVuSans-50"/>
       <use x="127.246094" xlink:href="#DejaVuSans-48"/>
      </g>
     </g>
    </g>
    <g id="xtick_8">
     <g id="line2d_8">
      <g>
       <use style="stroke:#000000;stroke-width:0.8;" x="357.650223" xlink:href="#m0bc157892a" y="147.9168"/>
      </g>
     </g>
     <g id="text_8">
      <!-- 140 -->
      <g transform="translate(348.106473 162.515237)scale(0.1 -0.1)">
       <use xlink:href="#DejaVuSans-49"/>
       <use x="63.623047" xlink:href="#DejaVuSans-52"/>
       <use x="127.246094" xlink:href="#DejaVuSans-48"/>
      </g>
     </g>
    </g>
    <g id="xtick_9">
     <g id="line2d_9">
      <g>
       <use style="stroke:#000000;stroke-width:0.8;" x="398.487273" xlink:href="#m0bc157892a" y="147.9168"/>
      </g>
     </g>
     <g id="text_9">
      <!-- 160 -->
      <g transform="translate(388.943523 162.515237)scale(0.1 -0.1)">
       <use xlink:href="#DejaVuSans-49"/>
       <use x="63.623047" xlink:href="#DejaVuSans-54"/>
       <use x="127.246094" xlink:href="#DejaVuSans-48"/>
      </g>
     </g>
    </g>
    <g id="text_10">
     <!-- epoch -->
     <defs>
      <path d="M 56.203125 29.59375 
L 56.203125 25.203125 
L 14.890625 25.203125 
Q 15.484375 15.921875 20.484375 11.0625 
Q 25.484375 6.203125 34.421875 6.203125 
Q 39.59375 6.203125 44.453125 7.46875 
Q 49.3125 8.734375 54.109375 11.28125 
L 54.109375 2.78125 
Q 49.265625 0.734375 44.1875 -0.34375 
Q 39.109375 -1.421875 33.890625 -1.421875 
Q 20.796875 -1.421875 13.15625 6.1875 
Q 5.515625 13.8125 5.515625 26.8125 
Q 5.515625 40.234375 12.765625 48.109375 
Q 20.015625 56 32.328125 56 
Q 43.359375 56 49.78125 48.890625 
Q 56.203125 41.796875 56.203125 29.59375 
z
M 47.21875 32.234375 
Q 47.125 39.59375 43.09375 43.984375 
Q 39.0625 48.390625 32.421875 48.390625 
Q 24.90625 48.390625 20.390625 44.140625 
Q 15.875 39.890625 15.1875 32.171875 
z
" id="DejaVuSans-101"/>
      <path d="M 18.109375 8.203125 
L 18.109375 -20.796875 
L 9.078125 -20.796875 
L 9.078125 54.6875 
L 18.109375 54.6875 
L 18.109375 46.390625 
Q 20.953125 51.265625 25.265625 53.625 
Q 29.59375 56 35.59375 56 
Q 45.5625 56 51.78125 48.09375 
Q 58.015625 40.1875 58.015625 27.296875 
Q 58.015625 14.40625 51.78125 6.484375 
Q 45.5625 -1.421875 35.59375 -1.421875 
Q 29.59375 -1.421875 25.265625 0.953125 
Q 20.953125 3.328125 18.109375 8.203125 
z
M 48.6875 27.296875 
Q 48.6875 37.203125 44.609375 42.84375 
Q 40.53125 48.484375 33.40625 48.484375 
Q 26.265625 48.484375 22.1875 42.84375 
Q 18.109375 37.203125 18.109375 27.296875 
Q 18.109375 17.390625 22.1875 11.75 
Q 26.265625 6.109375 33.40625 6.109375 
Q 40.53125 6.109375 44.609375 11.75 
Q 48.6875 17.390625 48.6875 27.296875 
z
" id="DejaVuSans-112"/>
      <path d="M 30.609375 48.390625 
Q 23.390625 48.390625 19.1875 42.75 
Q 14.984375 37.109375 14.984375 27.296875 
Q 14.984375 17.484375 19.15625 11.84375 
Q 23.34375 6.203125 30.609375 6.203125 
Q 37.796875 6.203125 41.984375 11.859375 
Q 46.1875 17.53125 46.1875 27.296875 
Q 46.1875 37.015625 41.984375 42.703125 
Q 37.796875 48.390625 30.609375 48.390625 
z
M 30.609375 56 
Q 42.328125 56 49.015625 48.375 
Q 55.71875 40.765625 55.71875 27.296875 
Q 55.71875 13.875 49.015625 6.21875 
Q 42.328125 -1.421875 30.609375 -1.421875 
Q 18.84375 -1.421875 12.171875 6.21875 
Q 5.515625 13.875 5.515625 27.296875 
Q 5.515625 40.765625 12.171875 48.375 
Q 18.84375 56 30.609375 56 
z
" id="DejaVuSans-111"/>
      <path d="M 48.78125 52.59375 
L 48.78125 44.1875 
Q 44.96875 46.296875 41.140625 47.34375 
Q 37.3125 48.390625 33.40625 48.390625 
Q 24.65625 48.390625 19.8125 42.84375 
Q 14.984375 37.3125 14.984375 27.296875 
Q 14.984375 17.28125 19.8125 11.734375 
Q 24.65625 6.203125 33.40625 6.203125 
Q 37.3125 6.203125 41.140625 7.25 
Q 44.96875 8.296875 48.78125 10.40625 
L 48.78125 2.09375 
Q 45.015625 0.34375 40.984375 -0.53125 
Q 36.96875 -1.421875 32.421875 -1.421875 
Q 20.0625 -1.421875 12.78125 6.34375 
Q 5.515625 14.109375 5.515625 27.296875 
Q 5.515625 40.671875 12.859375 48.328125 
Q 20.21875 56 33.015625 56 
Q 37.15625 56 41.109375 55.140625 
Q 45.0625 54.296875 48.78125 52.59375 
z
" id="DejaVuSans-99"/>
      <path d="M 54.890625 33.015625 
L 54.890625 0 
L 45.90625 0 
L 45.90625 32.71875 
Q 45.90625 40.484375 42.875 44.328125 
Q 39.84375 48.1875 33.796875 48.1875 
Q 26.515625 48.1875 22.3125 43.546875 
Q 18.109375 38.921875 18.109375 30.90625 
L 18.109375 0 
L 9.078125 0 
L 9.078125 75.984375 
L 18.109375 75.984375 
L 18.109375 46.1875 
Q 21.34375 51.125 25.703125 53.5625 
Q 30.078125 56 35.796875 56 
Q 45.21875 56 50.046875 50.171875 
Q 54.890625 44.34375 54.890625 33.015625 
z
" id="DejaVuSans-104"/>
     </defs>
     <g transform="translate(220.931875 176.193362)scale(0.1 -0.1)">
      <use xlink:href="#DejaVuSans-101"/>
      <use x="61.523438" xlink:href="#DejaVuSans-112"/>
      <use x="125" xlink:href="#DejaVuSans-111"/>
      <use x="186.181641" xlink:href="#DejaVuSans-99"/>
      <use x="241.162109" xlink:href="#DejaVuSans-104"/>
     </g>
    </g>
   </g>
   <g id="matplotlib.axis_2">
    <g id="ytick_1">
     <g id="line2d_10">
      <defs>
       <path d="M 0 0 
L -3.5 0 
" id="m6438511971" style="stroke:#000000;stroke-width:0.8;"/>
      </defs>
      <g>
       <use style="stroke:#000000;stroke-width:0.8;" x="57.6" xlink:href="#m6438511971" y="116.288774"/>
      </g>
     </g>
     <g id="text_11">
      <!-- 15 -->
      <defs>
       <path d="M 10.796875 72.90625 
L 49.515625 72.90625 
L 49.515625 64.59375 
L 19.828125 64.59375 
L 19.828125 46.734375 
Q 21.96875 47.46875 24.109375 47.828125 
Q 26.265625 48.1875 28.421875 48.1875 
Q 40.625 48.1875 47.75 41.5 
Q 54.890625 34.8125 54.890625 23.390625 
Q 54.890625 11.625 47.5625 5.09375 
Q 40.234375 -1.421875 26.90625 -1.421875 
Q 22.3125 -1.421875 17.546875 -0.640625 
Q 12.796875 0.140625 7.71875 1.703125 
L 7.71875 11.625 
Q 12.109375 9.234375 16.796875 8.0625 
Q 21.484375 6.890625 26.703125 6.890625 
Q 35.15625 6.890625 40.078125 11.328125 
Q 45.015625 15.765625 45.015625 23.390625 
Q 45.015625 31 40.078125 35.4375 
Q 35.15625 39.890625 26.703125 39.890625 
Q 22.75 39.890625 18.8125 39.015625 
Q 14.890625 38.140625 10.796875 36.28125 
z
" id="DejaVuSans-53"/>
      </defs>
      <g transform="translate(37.875 120.087993)scale(0.1 -0.1)">
       <use xlink:href="#DejaVuSans-49"/>
       <use x="63.623047" xlink:href="#DejaVuSans-53"/>
      </g>
     </g>
    </g>
    <g id="ytick_2">
     <g id="line2d_11">
      <g>
       <use style="stroke:#000000;stroke-width:0.8;" x="57.6" xlink:href="#m6438511971" y="78.422508"/>
      </g>
     </g>
     <g id="text_12">
      <!-- 20 -->
      <g transform="translate(37.875 82.221727)scale(0.1 -0.1)">
       <use xlink:href="#DejaVuSans-50"/>
       <use x="63.623047" xlink:href="#DejaVuSans-48"/>
      </g>
     </g>
    </g>
    <g id="text_13">
     <!-- PSNR -->
     <defs>
      <path d="M 19.671875 64.796875 
L 19.671875 37.40625 
L 32.078125 37.40625 
Q 38.96875 37.40625 42.71875 40.96875 
Q 46.484375 44.53125 46.484375 51.125 
Q 46.484375 57.671875 42.71875 61.234375 
Q 38.96875 64.796875 32.078125 64.796875 
z
M 9.8125 72.90625 
L 32.078125 72.90625 
Q 44.34375 72.90625 50.609375 67.359375 
Q 56.890625 61.8125 56.890625 51.125 
Q 56.890625 40.328125 50.609375 34.8125 
Q 44.34375 29.296875 32.078125 29.296875 
L 19.671875 29.296875 
L 19.671875 0 
L 9.8125 0 
z
" id="DejaVuSans-80"/>
      <path d="M 53.515625 70.515625 
L 53.515625 60.890625 
Q 47.90625 63.578125 42.921875 64.890625 
Q 37.9375 66.21875 33.296875 66.21875 
Q 25.25 66.21875 20.875 63.09375 
Q 16.5 59.96875 16.5 54.203125 
Q 16.5 49.359375 19.40625 46.890625 
Q 22.3125 44.4375 30.421875 42.921875 
L 36.375 41.703125 
Q 47.40625 39.59375 52.65625 34.296875 
Q 57.90625 29 57.90625 20.125 
Q 57.90625 9.515625 50.796875 4.046875 
Q 43.703125 -1.421875 29.984375 -1.421875 
Q 24.8125 -1.421875 18.96875 -0.25 
Q 13.140625 0.921875 6.890625 3.21875 
L 6.890625 13.375 
Q 12.890625 10.015625 18.65625 8.296875 
Q 24.421875 6.59375 29.984375 6.59375 
Q 38.421875 6.59375 43.015625 9.90625 
Q 47.609375 13.234375 47.609375 19.390625 
Q 47.609375 24.75 44.3125 27.78125 
Q 41.015625 30.8125 33.5 32.328125 
L 27.484375 33.5 
Q 16.453125 35.6875 11.515625 40.375 
Q 6.59375 45.0625 6.59375 53.421875 
Q 6.59375 63.09375 13.40625 68.65625 
Q 20.21875 74.21875 32.171875 74.21875 
Q 37.3125 74.21875 42.625 73.28125 
Q 47.953125 72.359375 53.515625 70.515625 
z
" id="DejaVuSans-83"/>
      <path d="M 9.8125 72.90625 
L 23.09375 72.90625 
L 55.421875 11.921875 
L 55.421875 72.90625 
L 64.984375 72.90625 
L 64.984375 0 
L 51.703125 0 
L 19.390625 60.984375 
L 19.390625 0 
L 9.8125 0 
z
" id="DejaVuSans-78"/>
      <path d="M 44.390625 34.1875 
Q 47.5625 33.109375 50.5625 29.59375 
Q 53.5625 26.078125 56.59375 19.921875 
L 66.609375 0 
L 56 0 
L 46.6875 18.703125 
Q 43.0625 26.03125 39.671875 28.421875 
Q 36.28125 30.8125 30.421875 30.8125 
L 19.671875 30.8125 
L 19.671875 0 
L 9.8125 0 
L 9.8125 72.90625 
L 32.078125 72.90625 
Q 44.578125 72.90625 50.734375 67.671875 
Q 56.890625 62.453125 56.890625 51.90625 
Q 56.890625 45.015625 53.6875 40.46875 
Q 50.484375 35.9375 44.390625 34.1875 
z
M 19.671875 64.796875 
L 19.671875 38.921875 
L 32.078125 38.921875 
Q 39.203125 38.921875 42.84375 42.21875 
Q 46.484375 45.515625 46.484375 51.90625 
Q 46.484375 58.296875 42.84375 61.546875 
Q 39.203125 64.796875 32.078125 64.796875 
z
" id="DejaVuSans-82"/>
     </defs>
     <g transform="translate(31.795313 108.098306)rotate(-90)scale(0.1 -0.1)">
      <use xlink:href="#DejaVuSans-80"/>
      <use x="60.302734" xlink:href="#DejaVuSans-83"/>
      <use x="123.779297" xlink:href="#DejaVuSans-78"/>
      <use x="198.583984" xlink:href="#DejaVuSans-82"/>
     </g>
    </g>
   </g>
   <g id="line2d_12">
    <path clip-path="url(#p2dffd1d19c)" d="M 73.832727 124.214941 
L 75.87458 109.236561 
L 77.916432 98.281093 
L 79.958285 93.948435 
L 82.000137 88.780447 
L 86.083842 81.081477 
L 88.125695 79.133637 
L 90.167547 78.636074 
L 92.2094 77.283491 
L 94.251252 73.924753 
L 96.293105 73.263608 
L 98.334957 69.65874 
L 100.37681 64.145411 
L 102.418662 69.71251 
L 104.460515 80.657375 
L 106.502367 64.460459 
L 108.54422 64.312023 
L 110.586072 64.043172 
L 112.627925 63.248738 
L 114.669777 61.99385 
L 116.71163 61.719698 
L 118.753482 61.281207 
L 120.795334 66.990682 
L 122.837187 59.572681 
L 124.879039 60.770012 
L 126.920892 59.210679 
L 128.962744 59.195533 
L 131.004597 58.807025 
L 133.046449 58.620723 
L 135.088302 61.357697 
L 137.130154 57.873243 
L 139.172007 57.193922 
L 141.213859 56.080654 
L 143.255712 57.028068 
L 145.297564 56.644861 
L 147.339417 56.525204 
L 149.381269 51.195906 
L 151.423122 55.578547 
L 153.464974 55.42784 
L 155.506827 54.871205 
L 157.548679 54.761393 
L 161.632384 55.873904 
L 163.674237 54.575091 
L 167.757942 54.249441 
L 169.799794 54.469066 
L 171.841647 53.923034 
L 173.883499 49.139767 
L 175.925352 53.284609 
L 177.967204 52.852176 
L 180.009057 53.177069 
L 182.050909 52.924879 
L 184.092762 53.294454 
L 186.134614 48.416522 
L 188.176467 52.069859 
L 190.218319 53.391392 
L 192.260172 47.582707 
L 194.302024 52.198604 
L 196.343877 51.815398 
L 198.385729 47.179809 
L 200.427581 52.110755 
L 202.469434 51.767686 
L 204.511286 51.905519 
L 206.553139 51.769958 
L 208.594991 51.910821 
L 210.636844 51.502622 
L 212.678696 51.797222 
L 214.720549 51.916879 
L 216.762401 46.3104 
L 218.804254 46.4293 
L 220.846106 51.025507 
L 224.929811 50.939172 
L 229.013516 51.401141 
L 231.055369 51.152738 
L 233.097221 51.25119 
L 235.139074 50.675623 
L 237.180926 51.082307 
L 239.222779 50.821787 
L 241.264631 50.784678 
L 243.306484 51.278454 
L 247.390189 50.590045 
L 249.432041 50.574142 
L 251.473894 50.827846 
L 253.515746 50.447668 
L 255.557599 48.714151 
L 257.599451 46.575464 
L 259.641304 49.948591 
L 261.683156 49.61461 
L 263.725009 49.860741 
L 265.766861 49.967524 
L 267.808714 49.678226 
L 269.850566 49.791067 
L 271.892419 49.782737 
L 273.934271 50.334827 
L 275.976123 49.667623 
L 278.017976 49.931172 
L 280.059828 49.781979 
L 282.101681 49.99706 
L 284.143533 49.729724 
L 286.185386 49.825147 
L 288.227238 49.598707 
L 296.394648 49.823632 
L 298.436501 49.56387 
L 300.478353 49.742598 
L 302.520206 49.429823 
L 304.562058 49.784251 
L 306.603911 49.889519 
L 312.729468 49.342731 
L 314.771321 49.666866 
L 316.813173 49.701703 
L 318.855026 49.857712 
L 320.896878 49.579773 
L 322.938731 49.772134 
L 324.980583 49.597949 
L 329.064288 49.775163 
L 331.106141 49.850139 
L 333.147993 49.750172 
L 335.189846 49.979641 
L 345.399108 49.639602 
L 347.440961 49.836507 
L 369.901338 50.354517 
L 373.985043 50.155341 
L 382.152453 50.477204 
L 388.27801 50.50674 
L 398.487273 50.579443 
L 398.487273 50.579443 
" style="fill:none;stroke:#008000;stroke-linecap:square;stroke-width:1.5;"/>
   </g>
   <g id="line2d_13">
    <path clip-path="url(#p2dffd1d19c)" d="M 73.832727 143.0784 
L 75.87458 135.724771 
L 77.916432 118.692525 
L 79.958285 115.055091 
L 82.000137 104.429817 
L 84.04199 104.585826 
L 86.083842 101.773877 
L 88.125695 96.248432 
L 90.167547 90.186042 
L 92.2094 88.607019 
L 94.251252 85.217231 
L 96.293105 85.434583 
L 98.334957 82.105381 
L 100.37681 82.735476 
L 102.418662 78.055205 
L 104.460515 78.794355 
L 106.502367 76.076314 
L 108.54422 78.842066 
L 110.586072 70.351692 
L 112.627925 71.994331 
L 114.669777 73.979281 
L 116.71163 71.159001 
L 118.753482 72.834962 
L 120.795334 70.825021 
L 122.837187 69.395948 
L 124.879039 68.927921 
L 126.920892 67.26332 
L 128.962744 67.768456 
L 131.004597 69.337634 
L 133.046449 65.996314 
L 135.088302 66.062959 
L 137.130154 65.409387 
L 139.172007 63.49184 
L 141.213859 63.506229 
L 143.255712 61.876465 
L 145.297564 64.001519 
L 147.339417 62.181667 
L 149.381269 64.156771 
L 151.423122 65.129177 
L 153.464974 61.386475 
L 155.506827 58.60179 
L 157.548679 58.646472 
L 159.590532 59.745351 
L 161.632384 58.44048 
L 163.674237 58.185261 
L 167.757942 58.956218 
L 169.799794 58.126947 
L 171.841647 56.660765 
L 173.883499 57.128792 
L 175.925352 58.349601 
L 177.967204 56.784966 
L 180.009057 56.746343 
L 182.050909 55.820891 
L 184.092762 56.307094 
L 186.134614 56.393429 
L 188.176467 56.296492 
L 190.218319 56.606238 
L 192.260172 53.942725 
L 194.302024 55.755761 
L 196.343877 54.28655 
L 198.385729 54.765937 
L 200.427581 53.304299 
L 202.469434 53.908645 
L 204.511286 54.388789 
L 206.553139 53.235383 
L 208.594991 49.834235 
L 210.636844 52.401568 
L 212.678696 54.641736 
L 214.720549 50.671079 
L 216.762401 52.368245 
L 218.804254 52.178157 
L 220.846106 47.704636 
L 222.887959 52.058499 
L 224.929811 51.335253 
L 226.971664 50.755142 
L 229.013516 51.609405 
L 231.055369 51.489748 
L 233.097221 50.426463 
L 235.139074 52.156951 
L 237.180926 51.754812 
L 239.222779 51.139106 
L 241.264631 50.899791 
L 243.306484 50.184119 
L 245.348336 51.110328 
L 247.390189 46.978361 
L 249.432041 50.204567 
L 251.473894 49.23822 
L 253.515746 49.70246 
L 255.557599 48.120408 
L 257.599451 50.412831 
L 259.641304 50.395413 
L 261.683156 50.091725 
L 263.725009 49.06252 
L 265.766861 47.619815 
L 267.808714 49.788795 
L 269.850566 48.991332 
L 271.892419 48.377141 
L 273.934271 48.57556 
L 275.976123 48.968612 
L 278.017976 48.232492 
L 280.059828 47.637991 
L 282.101681 48.312768 
L 284.143533 49.224588 
L 286.185386 47.466078 
L 288.227238 47.689489 
L 290.269091 47.39489 
L 292.310943 47.993177 
L 294.352796 47.186625 
L 298.436501 47.786427 
L 300.478353 47.725084 
L 302.520206 47.289622 
L 306.603911 47.427455 
L 308.645763 47.664498 
L 310.687616 47.718268 
L 312.729468 47.44866 
L 314.771321 46.886725 
L 316.813173 47.397162 
L 318.855026 46.801147 
L 320.896878 47.447903 
L 322.938731 46.710268 
L 324.980583 46.659527 
L 327.022436 46.793574 
L 329.064288 46.711025 
L 331.106141 46.755707 
L 333.147993 46.531539 
L 335.189846 46.627719 
L 337.231698 46.913231 
L 339.273551 47.030616 
L 341.315403 46.722385 
L 343.357256 47.013198 
L 345.399108 46.726929 
L 347.440961 46.914746 
L 351.524666 46.576979 
L 353.566518 46.78903 
L 365.817633 46.725414 
L 367.859485 46.776912 
L 369.901338 46.550472 
L 373.985043 46.701937 
L 376.026895 46.626205 
L 378.068748 46.802661 
L 380.1106 46.830682 
L 382.152453 46.71254 
L 386.236158 46.771611 
L 388.27801 46.742075 
L 392.361715 46.855674 
L 394.403568 46.926863 
L 396.44542 46.800389 
L 398.487273 46.837498 
L 398.487273 46.837498 
" style="fill:none;stroke:#0000ff;stroke-linecap:square;stroke-width:1.5;"/>
   </g>
   <g id="patch_3">
    <path d="M 57.6 147.9168 
L 57.6 41.472 
" style="fill:none;stroke:#000000;stroke-linecap:square;stroke-linejoin:miter;stroke-width:0.8;"/>
   </g>
   <g id="patch_4">
    <path d="M 414.72 147.9168 
L 414.72 41.472 
" style="fill:none;stroke:#000000;stroke-linecap:square;stroke-linejoin:miter;stroke-width:0.8;"/>
   </g>
   <g id="patch_5">
    <path d="M 57.6 147.9168 
L 414.72 147.9168 
" style="fill:none;stroke:#000000;stroke-linecap:square;stroke-linejoin:miter;stroke-width:0.8;"/>
   </g>
   <g id="patch_6">
    <path d="M 57.6 41.472 
L 414.72 41.472 
" style="fill:none;stroke:#000000;stroke-linecap:square;stroke-linejoin:miter;stroke-width:0.8;"/>
   </g>
   <g id="text_14">
    <!-- PSNR Results -->
    <defs>
     <path id="DejaVuSans-32"/>
     <path d="M 44.28125 53.078125 
L 44.28125 44.578125 
Q 40.484375 46.53125 36.375 47.5 
Q 32.28125 48.484375 27.875 48.484375 
Q 21.1875 48.484375 17.84375 46.4375 
Q 14.5 44.390625 14.5 40.28125 
Q 14.5 37.15625 16.890625 35.375 
Q 19.28125 33.59375 26.515625 31.984375 
L 29.59375 31.296875 
Q 39.15625 29.25 43.1875 25.515625 
Q 47.21875 21.78125 47.21875 15.09375 
Q 47.21875 7.46875 41.1875 3.015625 
Q 35.15625 -1.421875 24.609375 -1.421875 
Q 20.21875 -1.421875 15.453125 -0.5625 
Q 10.6875 0.296875 5.421875 2 
L 5.421875 11.28125 
Q 10.40625 8.6875 15.234375 7.390625 
Q 20.0625 6.109375 24.8125 6.109375 
Q 31.15625 6.109375 34.5625 8.28125 
Q 37.984375 10.453125 37.984375 14.40625 
Q 37.984375 18.0625 35.515625 20.015625 
Q 33.0625 21.96875 24.703125 23.78125 
L 21.578125 24.515625 
Q 13.234375 26.265625 9.515625 29.90625 
Q 5.8125 33.546875 5.8125 39.890625 
Q 5.8125 47.609375 11.28125 51.796875 
Q 16.75 56 26.8125 56 
Q 31.78125 56 36.171875 55.265625 
Q 40.578125 54.546875 44.28125 53.078125 
z
" id="DejaVuSans-115"/>
     <path d="M 8.5 21.578125 
L 8.5 54.6875 
L 17.484375 54.6875 
L 17.484375 21.921875 
Q 17.484375 14.15625 20.5 10.265625 
Q 23.53125 6.390625 29.59375 6.390625 
Q 36.859375 6.390625 41.078125 11.03125 
Q 45.3125 15.671875 45.3125 23.6875 
L 45.3125 54.6875 
L 54.296875 54.6875 
L 54.296875 0 
L 45.3125 0 
L 45.3125 8.40625 
Q 42.046875 3.421875 37.71875 1 
Q 33.40625 -1.421875 27.6875 -1.421875 
Q 18.265625 -1.421875 13.375 4.4375 
Q 8.5 10.296875 8.5 21.578125 
z
M 31.109375 56 
z
" id="DejaVuSans-117"/>
     <path d="M 9.421875 75.984375 
L 18.40625 75.984375 
L 18.40625 0 
L 9.421875 0 
z
" id="DejaVuSans-108"/>
     <path d="M 18.3125 70.21875 
L 18.3125 54.6875 
L 36.8125 54.6875 
L 36.8125 47.703125 
L 18.3125 47.703125 
L 18.3125 18.015625 
Q 18.3125 11.328125 20.140625 9.421875 
Q 21.96875 7.515625 27.59375 7.515625 
L 36.8125 7.515625 
L 36.8125 0 
L 27.59375 0 
Q 17.1875 0 13.234375 3.875 
Q 9.28125 7.765625 9.28125 18.015625 
L 9.28125 47.703125 
L 2.6875 47.703125 
L 2.6875 54.6875 
L 9.28125 54.6875 
L 9.28125 70.21875 
z
" id="DejaVuSans-116"/>
    </defs>
    <g transform="translate(196.504687 35.472)scale(0.12 -0.12)">
     <use xlink:href="#DejaVuSans-80"/>
     <use x="60.302734" xlink:href="#DejaVuSans-83"/>
     <use x="123.779297" xlink:href="#DejaVuSans-78"/>
     <use x="198.583984" xlink:href="#DejaVuSans-82"/>
     <use x="268.066406" xlink:href="#DejaVuSans-32"/>
     <use x="299.853516" xlink:href="#DejaVuSans-82"/>
     <use x="364.835938" xlink:href="#DejaVuSans-101"/>
     <use x="426.359375" xlink:href="#DejaVuSans-115"/>
     <use x="478.458984" xlink:href="#DejaVuSans-117"/>
     <use x="541.837891" xlink:href="#DejaVuSans-108"/>
     <use x="569.621094" xlink:href="#DejaVuSans-116"/>
     <use x="608.830078" xlink:href="#DejaVuSans-115"/>
    </g>
   </g>
  </g>
  <g id="axes_2">
   <g id="patch_7">
    <path d="M 57.6 307.584 
L 414.72 307.584 
L 414.72 201.1392 
L 57.6 201.1392 
z
" style="fill:#ffffff;"/>
   </g>
   <g id="matplotlib.axis_3">
    <g id="xtick_10">
     <g id="line2d_14">
      <g>
       <use style="stroke:#000000;stroke-width:0.8;" x="71.790875" xlink:href="#m0bc157892a" y="307.584"/>
      </g>
     </g>
     <g id="text_15">
      <!-- 0 -->
      <g transform="translate(68.609625 322.182437)scale(0.1 -0.1)">
       <use xlink:href="#DejaVuSans-48"/>
      </g>
     </g>
    </g>
    <g id="xtick_11">
     <g id="line2d_15">
      <g>
       <use style="stroke:#000000;stroke-width:0.8;" x="112.627925" xlink:href="#m0bc157892a" y="307.584"/>
      </g>
     </g>
     <g id="text_16">
      <!-- 20 -->
      <g transform="translate(106.265425 322.182437)scale(0.1 -0.1)">
       <use xlink:href="#DejaVuSans-50"/>
       <use x="63.623047" xlink:href="#DejaVuSans-48"/>
      </g>
     </g>
    </g>
    <g id="xtick_12">
     <g id="line2d_16">
      <g>
       <use style="stroke:#000000;stroke-width:0.8;" x="153.464974" xlink:href="#m0bc157892a" y="307.584"/>
      </g>
     </g>
     <g id="text_17">
      <!-- 40 -->
      <g transform="translate(147.102474 322.182437)scale(0.1 -0.1)">
       <use xlink:href="#DejaVuSans-52"/>
       <use x="63.623047" xlink:href="#DejaVuSans-48"/>
      </g>
     </g>
    </g>
    <g id="xtick_13">
     <g id="line2d_17">
      <g>
       <use style="stroke:#000000;stroke-width:0.8;" x="194.302024" xlink:href="#m0bc157892a" y="307.584"/>
      </g>
     </g>
     <g id="text_18">
      <!-- 60 -->
      <g transform="translate(187.939524 322.182437)scale(0.1 -0.1)">
       <use xlink:href="#DejaVuSans-54"/>
       <use x="63.623047" xlink:href="#DejaVuSans-48"/>
      </g>
     </g>
    </g>
    <g id="xtick_14">
     <g id="line2d_18">
      <g>
       <use style="stroke:#000000;stroke-width:0.8;" x="235.139074" xlink:href="#m0bc157892a" y="307.584"/>
      </g>
     </g>
     <g id="text_19">
      <!-- 80 -->
      <g transform="translate(228.776574 322.182437)scale(0.1 -0.1)">
       <use xlink:href="#DejaVuSans-56"/>
       <use x="63.623047" xlink:href="#DejaVuSans-48"/>
      </g>
     </g>
    </g>
    <g id="xtick_15">
     <g id="line2d_19">
      <g>
       <use style="stroke:#000000;stroke-width:0.8;" x="275.976123" xlink:href="#m0bc157892a" y="307.584"/>
      </g>
     </g>
     <g id="text_20">
      <!-- 100 -->
      <g transform="translate(266.432373 322.182437)scale(0.1 -0.1)">
       <use xlink:href="#DejaVuSans-49"/>
       <use x="63.623047" xlink:href="#DejaVuSans-48"/>
       <use x="127.246094" xlink:href="#DejaVuSans-48"/>
      </g>
     </g>
    </g>
    <g id="xtick_16">
     <g id="line2d_20">
      <g>
       <use style="stroke:#000000;stroke-width:0.8;" x="316.813173" xlink:href="#m0bc157892a" y="307.584"/>
      </g>
     </g>
     <g id="text_21">
      <!-- 120 -->
      <g transform="translate(307.269423 322.182437)scale(0.1 -0.1)">
       <use xlink:href="#DejaVuSans-49"/>
       <use x="63.623047" xlink:href="#DejaVuSans-50"/>
       <use x="127.246094" xlink:href="#DejaVuSans-48"/>
      </g>
     </g>
    </g>
    <g id="xtick_17">
     <g id="line2d_21">
      <g>
       <use style="stroke:#000000;stroke-width:0.8;" x="357.650223" xlink:href="#m0bc157892a" y="307.584"/>
      </g>
     </g>
     <g id="text_22">
      <!-- 140 -->
      <g transform="translate(348.106473 322.182437)scale(0.1 -0.1)">
       <use xlink:href="#DejaVuSans-49"/>
       <use x="63.623047" xlink:href="#DejaVuSans-52"/>
       <use x="127.246094" xlink:href="#DejaVuSans-48"/>
      </g>
     </g>
    </g>
    <g id="xtick_18">
     <g id="line2d_22">
      <g>
       <use style="stroke:#000000;stroke-width:0.8;" x="398.487273" xlink:href="#m0bc157892a" y="307.584"/>
      </g>
     </g>
     <g id="text_23">
      <!-- 160 -->
      <g transform="translate(388.943523 322.182437)scale(0.1 -0.1)">
       <use xlink:href="#DejaVuSans-49"/>
       <use x="63.623047" xlink:href="#DejaVuSans-54"/>
       <use x="127.246094" xlink:href="#DejaVuSans-48"/>
      </g>
     </g>
    </g>
    <g id="text_24">
     <!-- epoch -->
     <g transform="translate(220.931875 335.860562)scale(0.1 -0.1)">
      <use xlink:href="#DejaVuSans-101"/>
      <use x="61.523438" xlink:href="#DejaVuSans-112"/>
      <use x="125" xlink:href="#DejaVuSans-111"/>
      <use x="186.181641" xlink:href="#DejaVuSans-99"/>
      <use x="241.162109" xlink:href="#DejaVuSans-104"/>
     </g>
    </g>
   </g>
   <g id="matplotlib.axis_4">
    <g id="ytick_3">
     <g id="line2d_23">
      <g>
       <use style="stroke:#000000;stroke-width:0.8;" x="57.6" xlink:href="#m6438511971" y="284.894644"/>
      </g>
     </g>
     <g id="text_25">
      <!-- 0.6 -->
      <defs>
       <path d="M 10.6875 12.40625 
L 21 12.40625 
L 21 0 
L 10.6875 0 
z
" id="DejaVuSans-46"/>
      </defs>
      <g transform="translate(34.696875 288.693863)scale(0.1 -0.1)">
       <use xlink:href="#DejaVuSans-48"/>
       <use x="63.623047" xlink:href="#DejaVuSans-46"/>
       <use x="95.410156" xlink:href="#DejaVuSans-54"/>
      </g>
     </g>
    </g>
    <g id="ytick_4">
     <g id="line2d_24">
      <g>
       <use style="stroke:#000000;stroke-width:0.8;" x="57.6" xlink:href="#m6438511971" y="256.64946"/>
      </g>
     </g>
     <g id="text_26">
      <!-- 0.7 -->
      <defs>
       <path d="M 8.203125 72.90625 
L 55.078125 72.90625 
L 55.078125 68.703125 
L 28.609375 0 
L 18.3125 0 
L 43.21875 64.59375 
L 8.203125 64.59375 
z
" id="DejaVuSans-55"/>
      </defs>
      <g transform="translate(34.696875 260.448679)scale(0.1 -0.1)">
       <use xlink:href="#DejaVuSans-48"/>
       <use x="63.623047" xlink:href="#DejaVuSans-46"/>
       <use x="95.410156" xlink:href="#DejaVuSans-55"/>
      </g>
     </g>
    </g>
    <g id="ytick_5">
     <g id="line2d_25">
      <g>
       <use style="stroke:#000000;stroke-width:0.8;" x="57.6" xlink:href="#m6438511971" y="228.404276"/>
      </g>
     </g>
     <g id="text_27">
      <!-- 0.8 -->
      <g transform="translate(34.696875 232.203495)scale(0.1 -0.1)">
       <use xlink:href="#DejaVuSans-48"/>
       <use x="63.623047" xlink:href="#DejaVuSans-46"/>
       <use x="95.410156" xlink:href="#DejaVuSans-56"/>
      </g>
     </g>
    </g>
    <g id="text_28">
     <!-- SSIM -->
     <defs>
      <path d="M 9.8125 72.90625 
L 19.671875 72.90625 
L 19.671875 0 
L 9.8125 0 
z
" id="DejaVuSans-73"/>
      <path d="M 9.8125 72.90625 
L 24.515625 72.90625 
L 43.109375 23.296875 
L 61.8125 72.90625 
L 76.515625 72.90625 
L 76.515625 0 
L 66.890625 0 
L 66.890625 64.015625 
L 48.09375 14.015625 
L 38.1875 14.015625 
L 19.390625 64.015625 
L 19.390625 0 
L 9.8125 0 
z
" id="DejaVuSans-77"/>
     </defs>
     <g transform="translate(28.617188 266.4991)rotate(-90)scale(0.1 -0.1)">
      <use xlink:href="#DejaVuSans-83"/>
      <use x="63.476562" xlink:href="#DejaVuSans-83"/>
      <use x="126.953125" xlink:href="#DejaVuSans-73"/>
      <use x="156.445312" xlink:href="#DejaVuSans-77"/>
     </g>
    </g>
   </g>
   <g id="line2d_26">
    <path clip-path="url(#pd0bd905564)" d="M 73.832727 285.516038 
L 75.87458 267.919288 
L 77.916432 255.689124 
L 79.958285 249.475183 
L 84.04199 239.900066 
L 86.083842 235.606798 
L 88.125695 233.686125 
L 90.167547 233.488409 
L 92.2094 231.737208 
L 94.251252 229.364612 
L 96.293105 227.895863 
L 98.334957 225.184325 
L 100.37681 218.631442 
L 102.418662 224.675912 
L 104.460515 234.985404 
L 106.502367 220.552115 
L 108.54422 221.004038 
L 110.586072 220.410889 
L 112.627925 218.99863 
L 114.669777 219.507043 
L 116.71163 218.23601 
L 118.753482 217.981803 
L 120.795334 221.540696 
L 122.837187 216.739015 
L 124.879039 217.614616 
L 126.920892 216.851996 
L 128.962744 216.513054 
L 131.004597 216.428318 
L 133.046449 216.513054 
L 135.088302 217.077957 
L 137.130154 215.580963 
L 139.172007 215.016059 
L 141.213859 213.6038 
L 143.255712 214.648871 
L 145.297564 214.959568 
L 147.339417 214.564136 
L 149.381269 209.08457 
L 151.423122 214.42291 
L 153.464974 214.338174 
L 155.506827 213.349593 
L 157.548679 213.490819 
L 161.632384 214.564136 
L 163.674237 213.434329 
L 167.757942 213.349593 
L 169.799794 213.490819 
L 171.841647 213.180122 
L 173.883499 207.983008 
L 175.925352 211.937334 
L 177.967204 212.445747 
L 180.009057 212.276276 
L 184.092762 212.643463 
L 186.134614 207.531085 
L 188.176467 211.146469 
L 190.218319 212.586973 
L 192.260172 206.994427 
L 194.302024 211.654882 
L 196.343877 211.598392 
L 198.385729 206.768465 
L 200.427581 211.005243 
L 202.469434 211.654882 
L 204.511286 211.541901 
L 206.553139 211.598392 
L 208.594991 211.852598 
L 210.636844 211.174714 
L 212.678696 211.711372 
L 214.720549 211.683127 
L 216.762401 206.570749 
L 218.804254 206.74022 
L 220.846106 211.089978 
L 224.929811 211.118223 
L 226.971664 211.457166 
L 229.013516 211.344185 
L 231.055369 211.118223 
L 233.097221 211.457166 
L 237.180926 211.344185 
L 239.222779 211.31594 
L 241.264631 211.146469 
L 245.348336 211.31594 
L 247.390189 211.231204 
L 249.432041 211.287695 
L 251.473894 211.457166 
L 253.515746 210.807526 
L 255.557599 208.350195 
L 257.599451 207.276878 
L 259.641304 210.55332 
L 261.683156 210.412094 
L 263.725009 210.835772 
L 265.766861 210.694546 
L 267.808714 211.005243 
L 269.850566 210.779281 
L 271.892419 211.033488 
L 273.934271 211.598392 
L 275.976123 210.920507 
L 278.017976 211.061733 
L 280.059828 211.089978 
L 282.101681 211.259449 
L 286.185386 211.118223 
L 290.269091 211.259449 
L 292.310943 211.31594 
L 294.352796 211.202959 
L 300.478353 211.457166 
L 302.520206 211.259449 
L 308.645763 211.42892 
L 310.687616 211.118223 
L 312.729468 211.061733 
L 314.771321 211.42892 
L 316.813173 211.42892 
L 318.855026 211.626637 
L 320.896878 211.485411 
L 322.938731 211.683127 
L 324.980583 211.400675 
L 327.022436 211.711372 
L 329.064288 211.570146 
L 331.106141 211.824353 
L 333.147993 211.598392 
L 335.189846 211.767863 
L 337.231698 211.796108 
L 339.273551 211.683127 
L 343.357256 211.824353 
L 345.399108 211.796108 
L 349.482813 211.880843 
L 361.733928 212.13505 
L 365.817633 212.276276 
L 378.068748 212.361012 
L 394.403568 212.502237 
L 398.487273 212.502237 
L 398.487273 212.502237 
" style="fill:none;stroke:#008000;stroke-linecap:square;stroke-width:1.5;"/>
   </g>
   <g id="line2d_27">
    <path clip-path="url(#pd0bd905564)" d="M 73.832727 302.7456 
L 75.87458 289.046686 
L 77.916432 273.850777 
L 79.958285 273.511835 
L 82.000137 261.535877 
L 84.04199 259.248017 
L 86.083842 253.937922 
L 88.125695 249.503428 
L 90.167547 243.458959 
L 92.2094 241.453551 
L 94.251252 242.442132 
L 98.334957 235.578553 
L 100.37681 235.18312 
L 102.418662 230.776871 
L 104.460515 231.850188 
L 106.502367 230.776871 
L 108.54422 233.036486 
L 110.586072 220.552115 
L 112.627925 226.822546 
L 114.669777 227.330959 
L 116.71163 226.144661 
L 118.753482 226.935526 
L 120.795334 225.21257 
L 122.837187 223.998027 
L 124.879039 224.506441 
L 126.920892 222.331561 
L 131.004597 223.433124 
L 133.046449 218.123029 
L 135.088302 221.484206 
L 139.172007 219.422308 
L 141.213859 219.111611 
L 143.255712 218.687933 
L 145.297564 219.676514 
L 147.339417 218.179519 
L 149.381269 219.507043 
L 151.423122 220.100192 
L 155.506827 214.394665 
L 157.548679 216.315337 
L 159.590532 217.388654 
L 161.632384 216.061131 
L 163.674237 216.145866 
L 165.716089 216.371828 
L 167.757942 215.609208 
L 169.799794 215.693943 
L 171.841647 213.801516 
L 173.883499 215.157285 
L 175.925352 215.552717 
L 177.967204 213.970987 
L 182.050909 213.71678 
L 184.092762 214.083968 
L 186.134614 214.225194 
L 188.176467 214.677117 
L 190.218319 213.377838 
L 192.260172 212.558728 
L 194.302024 213.462574 
L 196.343877 212.812935 
L 198.385729 213.010651 
L 200.427581 211.683127 
L 202.469434 212.699954 
L 204.511286 212.84118 
L 206.553139 211.880843 
L 208.594991 208.604402 
L 210.636844 211.400675 
L 212.678696 209.875435 
L 214.720549 209.169306 
L 216.762401 211.626637 
L 218.804254 211.089978 
L 220.846106 206.231807 
L 222.887959 211.089978 
L 224.929811 210.581565 
L 226.971664 210.468584 
L 229.013516 210.779281 
L 231.055369 210.412094 
L 233.097221 210.157887 
L 235.139074 211.033488 
L 237.180926 211.005243 
L 239.222779 210.835772 
L 241.264631 210.186132 
L 243.306484 210.016661 
L 245.348336 210.638055 
L 247.390189 205.9776 
L 249.432041 209.875435 
L 251.473894 209.508248 
L 253.515746 209.621229 
L 255.557599 208.519667 
L 257.599451 210.214378 
L 259.641304 210.129642 
L 261.683156 209.818945 
L 263.725009 209.7907 
L 265.766861 208.830364 
L 267.808714 210.044906 
L 269.850566 209.338777 
L 275.976123 209.451758 
L 278.017976 209.254041 
L 280.059828 208.689138 
L 284.143533 209.536493 
L 286.185386 208.632647 
L 288.227238 209.141061 
L 290.269091 208.689138 
L 292.310943 209.112815 
L 294.352796 208.378441 
L 296.394648 208.802118 
L 300.478353 208.999835 
L 302.520206 208.519667 
L 304.562058 208.830364 
L 306.603911 208.576157 
L 308.645763 208.773873 
L 310.687616 208.802118 
L 312.729468 208.434931 
L 314.771321 208.434931 
L 316.813173 208.773873 
L 318.855026 208.350195 
L 320.896878 208.660892 
L 322.938731 208.378441 
L 324.980583 208.293705 
L 327.022436 208.434931 
L 333.147993 208.237215 
L 335.189846 208.20897 
L 337.231698 208.576157 
L 339.273551 208.660892 
L 341.315403 208.293705 
L 343.357256 208.547912 
L 345.399108 208.26546 
L 347.440961 208.547912 
L 349.482813 208.350195 
L 355.60837 208.293705 
L 357.650223 208.491421 
L 359.692075 208.434931 
L 361.733928 208.576157 
L 363.77578 208.378441 
L 365.817633 208.519667 
L 367.859485 208.519667 
L 369.901338 208.293705 
L 371.94319 208.406686 
L 373.985043 208.378441 
L 380.1106 208.689138 
L 382.152453 208.463176 
L 386.236158 208.660892 
L 388.27801 208.547912 
L 394.403568 208.689138 
L 396.44542 208.547912 
L 398.487273 208.576157 
L 398.487273 208.576157 
" style="fill:none;stroke:#0000ff;stroke-linecap:square;stroke-width:1.5;"/>
   </g>
   <g id="patch_8">
    <path d="M 57.6 307.584 
L 57.6 201.1392 
" style="fill:none;stroke:#000000;stroke-linecap:square;stroke-linejoin:miter;stroke-width:0.8;"/>
   </g>
   <g id="patch_9">
    <path d="M 414.72 307.584 
L 414.72 201.1392 
" style="fill:none;stroke:#000000;stroke-linecap:square;stroke-linejoin:miter;stroke-width:0.8;"/>
   </g>
   <g id="patch_10">
    <path d="M 57.6 307.584 
L 414.72 307.584 
" style="fill:none;stroke:#000000;stroke-linecap:square;stroke-linejoin:miter;stroke-width:0.8;"/>
   </g>
   <g id="patch_11">
    <path d="M 57.6 201.1392 
L 414.72 201.1392 
" style="fill:none;stroke:#000000;stroke-linecap:square;stroke-linejoin:miter;stroke-width:0.8;"/>
   </g>
   <g id="text_29">
    <!-- SSIM Results -->
    <g transform="translate(198.024375 195.1392)scale(0.12 -0.12)">
     <use xlink:href="#DejaVuSans-83"/>
     <use x="63.476562" xlink:href="#DejaVuSans-83"/>
     <use x="126.953125" xlink:href="#DejaVuSans-73"/>
     <use x="156.445312" xlink:href="#DejaVuSans-77"/>
     <use x="242.724609" xlink:href="#DejaVuSans-32"/>
     <use x="274.511719" xlink:href="#DejaVuSans-82"/>
     <use x="339.494141" xlink:href="#DejaVuSans-101"/>
     <use x="401.017578" xlink:href="#DejaVuSans-115"/>
     <use x="453.117188" xlink:href="#DejaVuSans-117"/>
     <use x="516.496094" xlink:href="#DejaVuSans-108"/>
     <use x="544.279297" xlink:href="#DejaVuSans-116"/>
     <use x="583.488281" xlink:href="#DejaVuSans-115"/>
    </g>
   </g>
   <g id="legend_1">
    <g id="patch_12">
     <path d="M 247.516875 302.584 
L 407.72 302.584 
Q 409.72 302.584 409.72 300.584 
L 409.72 271.949625 
Q 409.72 269.949625 407.72 269.949625 
L 247.516875 269.949625 
Q 245.516875 269.949625 245.516875 271.949625 
L 245.516875 300.584 
Q 245.516875 302.584 247.516875 302.584 
z
" style="fill:#ffffff;opacity:0.8;stroke:#cccccc;stroke-linejoin:miter;"/>
    </g>
    <g id="line2d_28">
     <path d="M 249.516875 278.048062 
L 269.516875 278.048062 
" style="fill:none;stroke:#008000;stroke-linecap:square;stroke-width:1.5;"/>
    </g>
    <g id="line2d_29"/>
    <g id="text_30">
     <!-- unet lr=0.0002 -->
     <defs>
      <path d="M 54.890625 33.015625 
L 54.890625 0 
L 45.90625 0 
L 45.90625 32.71875 
Q 45.90625 40.484375 42.875 44.328125 
Q 39.84375 48.1875 33.796875 48.1875 
Q 26.515625 48.1875 22.3125 43.546875 
Q 18.109375 38.921875 18.109375 30.90625 
L 18.109375 0 
L 9.078125 0 
L 9.078125 54.6875 
L 18.109375 54.6875 
L 18.109375 46.1875 
Q 21.34375 51.125 25.703125 53.5625 
Q 30.078125 56 35.796875 56 
Q 45.21875 56 50.046875 50.171875 
Q 54.890625 44.34375 54.890625 33.015625 
z
" id="DejaVuSans-110"/>
      <path d="M 41.109375 46.296875 
Q 39.59375 47.171875 37.8125 47.578125 
Q 36.03125 48 33.890625 48 
Q 26.265625 48 22.1875 43.046875 
Q 18.109375 38.09375 18.109375 28.8125 
L 18.109375 0 
L 9.078125 0 
L 9.078125 54.6875 
L 18.109375 54.6875 
L 18.109375 46.1875 
Q 20.953125 51.171875 25.484375 53.578125 
Q 30.03125 56 36.53125 56 
Q 37.453125 56 38.578125 55.875 
Q 39.703125 55.765625 41.0625 55.515625 
z
" id="DejaVuSans-114"/>
      <path d="M 10.59375 45.40625 
L 73.1875 45.40625 
L 73.1875 37.203125 
L 10.59375 37.203125 
z
M 10.59375 25.484375 
L 73.1875 25.484375 
L 73.1875 17.1875 
L 10.59375 17.1875 
z
" id="DejaVuSans-61"/>
     </defs>
     <g transform="translate(277.516875 281.548062)scale(0.1 -0.1)">
      <use xlink:href="#DejaVuSans-117"/>
      <use x="63.378906" xlink:href="#DejaVuSans-110"/>
      <use x="126.757812" xlink:href="#DejaVuSans-101"/>
      <use x="188.28125" xlink:href="#DejaVuSans-116"/>
      <use x="227.490234" xlink:href="#DejaVuSans-32"/>
      <use x="259.277344" xlink:href="#DejaVuSans-108"/>
      <use x="287.060547" xlink:href="#DejaVuSans-114"/>
      <use x="328.173828" xlink:href="#DejaVuSans-61"/>
      <use x="411.962891" xlink:href="#DejaVuSans-48"/>
      <use x="475.585938" xlink:href="#DejaVuSans-46"/>
      <use x="507.373047" xlink:href="#DejaVuSans-48"/>
      <use x="570.996094" xlink:href="#DejaVuSans-48"/>
      <use x="634.619141" xlink:href="#DejaVuSans-48"/>
      <use x="698.242188" xlink:href="#DejaVuSans-50"/>
     </g>
    </g>
    <g id="line2d_30">
     <path d="M 249.516875 292.726187 
L 269.516875 292.726187 
" style="fill:none;stroke:#0000ff;stroke-linecap:square;stroke-width:1.5;"/>
    </g>
    <g id="line2d_31"/>
    <g id="text_31">
     <!-- resnet_9blocks lr=0.0002 -->
     <defs>
      <path d="M 50.984375 -16.609375 
L 50.984375 -23.578125 
L -0.984375 -23.578125 
L -0.984375 -16.609375 
z
" id="DejaVuSans-95"/>
      <path d="M 10.984375 1.515625 
L 10.984375 10.5 
Q 14.703125 8.734375 18.5 7.8125 
Q 22.3125 6.890625 25.984375 6.890625 
Q 35.75 6.890625 40.890625 13.453125 
Q 46.046875 20.015625 46.78125 33.40625 
Q 43.953125 29.203125 39.59375 26.953125 
Q 35.25 24.703125 29.984375 24.703125 
Q 19.046875 24.703125 12.671875 31.3125 
Q 6.296875 37.9375 6.296875 49.421875 
Q 6.296875 60.640625 12.9375 67.421875 
Q 19.578125 74.21875 30.609375 74.21875 
Q 43.265625 74.21875 49.921875 64.515625 
Q 56.59375 54.828125 56.59375 36.375 
Q 56.59375 19.140625 48.40625 8.859375 
Q 40.234375 -1.421875 26.421875 -1.421875 
Q 22.703125 -1.421875 18.890625 -0.6875 
Q 15.09375 0.046875 10.984375 1.515625 
z
M 30.609375 32.421875 
Q 37.25 32.421875 41.125 36.953125 
Q 45.015625 41.5 45.015625 49.421875 
Q 45.015625 57.28125 41.125 61.84375 
Q 37.25 66.40625 30.609375 66.40625 
Q 23.96875 66.40625 20.09375 61.84375 
Q 16.21875 57.28125 16.21875 49.421875 
Q 16.21875 41.5 20.09375 36.953125 
Q 23.96875 32.421875 30.609375 32.421875 
z
" id="DejaVuSans-57"/>
      <path d="M 48.6875 27.296875 
Q 48.6875 37.203125 44.609375 42.84375 
Q 40.53125 48.484375 33.40625 48.484375 
Q 26.265625 48.484375 22.1875 42.84375 
Q 18.109375 37.203125 18.109375 27.296875 
Q 18.109375 17.390625 22.1875 11.75 
Q 26.265625 6.109375 33.40625 6.109375 
Q 40.53125 6.109375 44.609375 11.75 
Q 48.6875 17.390625 48.6875 27.296875 
z
M 18.109375 46.390625 
Q 20.953125 51.265625 25.265625 53.625 
Q 29.59375 56 35.59375 56 
Q 45.5625 56 51.78125 48.09375 
Q 58.015625 40.1875 58.015625 27.296875 
Q 58.015625 14.40625 51.78125 6.484375 
Q 45.5625 -1.421875 35.59375 -1.421875 
Q 29.59375 -1.421875 25.265625 0.953125 
Q 20.953125 3.328125 18.109375 8.203125 
L 18.109375 0 
L 9.078125 0 
L 9.078125 75.984375 
L 18.109375 75.984375 
z
" id="DejaVuSans-98"/>
      <path d="M 9.078125 75.984375 
L 18.109375 75.984375 
L 18.109375 31.109375 
L 44.921875 54.6875 
L 56.390625 54.6875 
L 27.390625 29.109375 
L 57.625 0 
L 45.90625 0 
L 18.109375 26.703125 
L 18.109375 0 
L 9.078125 0 
z
" id="DejaVuSans-107"/>
     </defs>
     <g transform="translate(277.516875 296.226187)scale(0.1 -0.1)">
      <use xlink:href="#DejaVuSans-114"/>
      <use x="38.863281" xlink:href="#DejaVuSans-101"/>
      <use x="100.386719" xlink:href="#DejaVuSans-115"/>
      <use x="152.486328" xlink:href="#DejaVuSans-110"/>
      <use x="215.865234" xlink:href="#DejaVuSans-101"/>
      <use x="277.388672" xlink:href="#DejaVuSans-116"/>
      <use x="316.597656" xlink:href="#DejaVuSans-95"/>
      <use x="366.597656" xlink:href="#DejaVuSans-57"/>
      <use x="430.220703" xlink:href="#DejaVuSans-98"/>
      <use x="493.697266" xlink:href="#DejaVuSans-108"/>
      <use x="521.480469" xlink:href="#DejaVuSans-111"/>
      <use x="582.662109" xlink:href="#DejaVuSans-99"/>
      <use x="637.642578" xlink:href="#DejaVuSans-107"/>
      <use x="695.552734" xlink:href="#DejaVuSans-115"/>
      <use x="747.652344" xlink:href="#DejaVuSans-32"/>
      <use x="779.439453" xlink:href="#DejaVuSans-108"/>
      <use x="807.222656" xlink:href="#DejaVuSans-114"/>
      <use x="848.335938" xlink:href="#DejaVuSans-61"/>
      <use x="932.125" xlink:href="#DejaVuSans-48"/>
      <use x="995.748047" xlink:href="#DejaVuSans-46"/>
      <use x="1027.535156" xlink:href="#DejaVuSans-48"/>
      <use x="1091.158203" xlink:href="#DejaVuSans-48"/>
      <use x="1154.78125" xlink:href="#DejaVuSans-48"/>
      <use x="1218.404297" xlink:href="#DejaVuSans-50"/>
     </g>
    </g>
   </g>
  </g>
 </g>
 <defs>
  <clipPath id="p2dffd1d19c">
   <rect height="106.4448" width="357.12" x="57.6" y="41.472"/>
  </clipPath>
  <clipPath id="pd0bd905564">
   <rect height="106.4448" width="357.12" x="57.6" y="201.1392"/>
  </clipPath>
 </defs>
</svg>
